<?xml version="1.0" encoding="utf-8"?>
<!-- Generator: Adobe Illustrator 22.0.1, SVG Export Plug-In . SVG Version: 6.00 Build 0)  -->
<svg version="1.1" id="Layer_1" xmlns="http://www.w3.org/2000/svg" xmlns:xlink="http://www.w3.org/1999/xlink" x="0px" y="0px"
	 viewBox="0 0 26 26" enable-background="new 0 0 26 26" xml:space="preserve">
<g>
	<g>
		<path d="M9.653,13.085c-2.403,0-4.358-1.955-4.358-4.358s1.955-4.358,4.358-4.358s4.358,1.955,4.358,4.358
			S12.056,13.085,9.653,13.085z M9.653,5.368c-1.852,0-3.358,1.507-3.358,3.358s1.507,3.358,3.358,3.358s3.358-1.507,3.358-3.358
			S11.504,5.368,9.653,5.368z"/>
	</g>
	<g>
		<path d="M16.728,21.464c-0.238,0-0.449-0.171-0.491-0.414c-0.045-0.254-0.1-0.504-0.164-0.749
			c-0.07-0.268,0.089-0.541,0.355-0.611c0.269-0.073,0.54,0.09,0.611,0.355c0.072,0.272,0.133,0.55,0.182,0.833
			c0.048,0.272-0.134,0.531-0.406,0.578C16.785,21.462,16.757,21.464,16.728,21.464z"/>
	</g>
	<g>
		<path d="M2.577,21.632c-0.026,0-0.052-0.002-0.078-0.006c-0.273-0.043-0.46-0.299-0.417-0.571
			c0.665-4.238,3.854-7.313,7.584-7.313c0.919,0,1.819,0.186,2.675,0.551c0.254,0.108,0.372,0.402,0.264,0.656
			s-0.404,0.372-0.656,0.264c-0.73-0.313-1.499-0.471-2.282-0.471c-3.233,0-6.008,2.721-6.596,6.468
			C3.032,21.456,2.819,21.632,2.577,21.632z"/>
	</g>
	<g>
		<path d="M13.87,21.632H9.921v-3.051l4.944-5.143c-0.18-0.826-0.467-3.175,1.541-4.843c0.956-0.794,2.048-1.134,3.244-1.031
			c1.792,0.165,3.361,1.385,3.995,3.107c0.432,1.172,0.354,2.389-0.223,3.518c-1.215,2.369-3.822,2.681-5.243,2.504l-0.982,0.982
			H15.83v2.102h-1.96V21.632z M10.921,20.632h1.949v-1.854h1.96v-2.102h1.953l1.055-1.055l0.26,0.048
			c0.129,0.021,3.16,0.553,4.435-1.935c0.454-0.887,0.513-1.801,0.176-2.717c-0.503-1.363-1.738-2.327-3.149-2.457
			c-0.919-0.089-1.769,0.186-2.514,0.805c-1.896,1.575-1.182,3.969-1.149,4.07l0.087,0.281l-5.062,5.267V20.632z"/>
	</g>
	<g>
		<path d="M19.232,13.473c-0.83,0-1.505-0.675-1.505-1.505s0.675-1.505,1.505-1.505s1.506,0.675,1.506,1.505
			S20.062,13.473,19.232,13.473z M19.232,11.463c-0.278,0-0.505,0.227-0.505,0.505s0.227,0.505,0.505,0.505
			c0.279,0,0.506-0.227,0.506-0.505S19.511,11.463,19.232,11.463z"/>
	</g>
</g>
</svg>
