<?xml version="1.0" encoding="utf-8"?>
<!-- Generator: Adobe Illustrator 27.1.0, SVG Export Plug-In . SVG Version: 6.00 Build 0)  -->
<svg version="1.1" id="Guides" xmlns="http://www.w3.org/2000/svg" xmlns:xlink="http://www.w3.org/1999/xlink" x="0px" y="0px"
	 viewBox="0 0 24 24" enable-background="new 0 0 24 24" xml:space="preserve">
<g>
	<g>
		<path d="M21.8,22H2.3c-0.5,0-0.9-0.2-1.1-0.7c-0.2-0.4-0.2-0.9,0-1.3l9.5-17.2C10.8,2.3,11.3,2,11.8,2c0.5,0,0.9,0.2,1.2,0.7
			L23,20c0.2,0.4,0.2,0.9,0,1.3C22.8,21.7,22.3,22,21.8,22z M2.6,20.5h19L11.8,3.7L2.6,20.5z M11.9,3.5L11.9,3.5L11.9,3.5z"/>
	</g>
	<g>
		<path d="M12,16.6c-0.4,0-0.8-0.3-0.8-0.8V9.8C11.3,9.4,11.6,9,12,9s0.8,0.3,0.8,0.8v6.1C12.8,16.3,12.4,16.6,12,16.6z"/>
	</g>
	<g>
		<path d="M12,19.1c-0.4,0-0.8-0.3-0.8-0.8v-0.2c0-0.4,0.3-0.8,0.8-0.8s0.8,0.3,0.8,0.8v0.2C12.8,18.8,12.4,19.1,12,19.1z"/>
	</g>
</g>
</svg>
