<?xml version="1.0" encoding="utf-8"?>
<!-- Generator: Adobe Illustrator 22.0.1, SVG Export Plug-In . SVG Version: 6.00 Build 0)  -->
<svg version="1.1" id="Layer_1" xmlns="http://www.w3.org/2000/svg" xmlns:xlink="http://www.w3.org/1999/xlink" x="0px" y="0px"
	 viewBox="0 0 26 26" enable-background="new 0 0 26 26" xml:space="preserve">
<g id="Group_34879_2_" transform="translate(57.555 692.501)">
	<g id="Rectangle_6534_2_" transform="translate(0 0)">
		<g>
			<rect x="-52.305" y="-687.251" fill="none" width="3.317" height="3.317"/>
		</g>
		<g>
			<path d="M-48.893-683.839H-52.4v-3.507h3.507V-683.839z M-51.15-685.089h1.007v-1.007h-1.007V-685.089z"/>
		</g>
	</g>
	<g id="Rectangle_6539_2_" transform="translate(0 7.181)">
		<g>
			<rect x="-52.305" y="-688.34" fill="none" width="3.317" height="3.317"/>
		</g>
		<g>
			<path d="M-48.893-684.928H-52.4v-3.507h3.507V-684.928z M-51.15-686.178h1.007v-1.007h-1.007V-686.178z"/>
		</g>
	</g>
	<g id="Rectangle_6542_2_" transform="translate(0 14.36)">
		<g>
			<rect x="-52.305" y="-689.428" fill="none" width="3.317" height="3.317"/>
		</g>
		<g>
			<path d="M-48.893-686.016H-52.4v-3.507h3.507V-686.016z M-51.15-687.266h1.007v-1.007h-1.007V-687.266z"/>
		</g>
	</g>
	<g id="Rectangle_6535_2_" transform="translate(7.18 0)">
		<g>
			<rect x="-53.394" y="-687.251" fill="none" width="3.317" height="3.317"/>
		</g>
		<g>
			<path d="M-49.982-683.839h-3.507v-3.507h3.507V-683.839z M-52.238-685.089h1.007v-1.007h-1.007V-685.089z"/>
		</g>
	</g>
	<g id="Rectangle_6538_2_" transform="translate(7.18 7.181)">
		<g>
			<rect x="-53.394" y="-688.34" fill="none" width="3.317" height="3.317"/>
		</g>
		<g>
			<path d="M-49.982-684.928h-3.507v-3.507h3.507V-684.928z M-52.238-686.178h1.007v-1.007h-1.007V-686.178z"/>
		</g>
	</g>
	<g id="Rectangle_6541_2_" transform="translate(7.18 14.36)">
		<g>
			<rect x="-53.394" y="-689.428" fill="none" width="3.317" height="3.317"/>
		</g>
		<g>
			<path d="M-49.982-686.016h-3.507v-3.507h3.507V-686.016z M-52.238-687.266h1.007v-1.007h-1.007V-687.266z"/>
		</g>
	</g>
	<g id="Rectangle_6536_2_" transform="translate(14.36 0)">
		<g>
			<rect x="-54.482" y="-687.251" fill="none" width="3.317" height="3.317"/>
		</g>
		<g>
			<path d="M-51.07-683.839h-3.507v-3.507h3.507V-683.839z M-53.327-685.089h1.007v-1.007h-1.007V-685.089z"/>
		</g>
	</g>
	<g id="Rectangle_6537_2_" transform="translate(14.36 7.181)">
		<g>
			<rect x="-54.482" y="-688.34" fill="none" width="3.317" height="3.317"/>
		</g>
		<g>
			<path d="M-51.07-684.928h-3.507v-3.507h3.507V-684.928z M-53.327-686.178h1.007v-1.007h-1.007V-686.178z"/>
		</g>
	</g>
	<g id="Rectangle_6540_2_" transform="translate(14.36 14.36)">
		<g>
			<rect x="-54.482" y="-689.428" fill="none" width="3.317" height="3.317"/>
		</g>
		<g>
			<path d="M-51.07-686.016h-3.507v-3.507h3.507V-686.016z M-53.327-687.266h1.007v-1.007h-1.007V-687.266z"/>
		</g>
	</g>
</g>
</svg>
