<?xml version="1.0" encoding="utf-8"?>
<!-- Generator: Adobe Illustrator 27.1.0, SVG Export Plug-In . SVG Version: 6.00 Build 0)  -->
<svg version="1.1" id="Guides" xmlns="http://www.w3.org/2000/svg" xmlns:xlink="http://www.w3.org/1999/xlink" x="0px" y="0px"
	 viewBox="0 0 24 24" enable-background="new 0 0 24 24" xml:space="preserve">
<path id="Path_83098" d="M4,6h4c0.6,0,1,0.4,1,1S8.6,8,8,8H4C3.4,8,3,7.6,3,7S3.4,6,4,6z M3,17c0-0.6,0.4-1,1-1h16c0.6,0,1,0.4,1,1
	s-0.4,1-1,1H4C3.4,18,3,17.6,3,17z M4,11h10c0.6,0,1,0.4,1,1s-0.4,1-1,1H4c-0.6,0-1-0.4-1-1S3.4,11,4,11z"/>
</svg>
