<?xml version="1.0" encoding="utf-8"?>
<!-- Generator: Adobe Illustrator 22.0.1, SVG Export Plug-In . SVG Version: 6.00 Build 0)  -->
<svg version="1.1" id="Layer_1" xmlns="http://www.w3.org/2000/svg" xmlns:xlink="http://www.w3.org/1999/xlink" x="0px" y="0px"
	 viewBox="0 0 360 228.902" enable-background="new 0 0 360 228.902" xml:space="preserve">
<g>
	<g id="Group_34827_2_" transform="translate(7228 2655)">
		<rect id="Rectangle_24271_2_" x="-7134.358" y="-2523.902" fill="#2A3A50" width="4.162" height="4.162"/>
		<rect id="Rectangle_24278_2_" x="-7134.358" y="-2505.173" fill="#2A3A50" width="4.162" height="4.162"/>
		<rect id="Rectangle_24282_2_" x="-7134.358" y="-2486.445" fill="#2A3A50" width="4.162" height="4.162"/>
		<rect id="Rectangle_24286_2_" x="-7134.358" y="-2467.717" fill="#2A3A50" width="4.162" height="4.162"/>
		<rect id="Rectangle_24272_2_" x="-7115.63" y="-2523.902" fill="#2A3A50" width="4.162" height="4.162"/>
		<rect id="Rectangle_24277_2_" x="-7115.63" y="-2505.173" fill="#2A3A50" width="4.162" height="4.162"/>
		<rect id="Rectangle_24281_2_" x="-7115.63" y="-2486.445" fill="#2A3A50" width="4.162" height="4.162"/>
		<rect id="Rectangle_24285_2_" x="-7115.63" y="-2467.717" fill="#2A3A50" width="4.162" height="4.162"/>
		<rect id="Rectangle_24273_2_" x="-7096.902" y="-2523.902" fill="#2A3A50" width="4.162" height="4.162"/>
		<rect id="Rectangle_24276_2_" x="-7096.902" y="-2505.173" fill="#2A3A50" width="4.162" height="4.162"/>
		<rect id="Rectangle_24280_2_" x="-7096.902" y="-2486.445" fill="#2A3A50" width="4.162" height="4.162"/>
		<rect id="Rectangle_24284_2_" x="-7096.902" y="-2467.717" fill="#2A3A50" width="4.162" height="4.162"/>
		<rect id="Rectangle_24274_2_" x="-7078.173" y="-2523.902" fill="#2A3A50" width="4.162" height="4.162"/>
		<rect id="Rectangle_24275_2_" x="-7078.173" y="-2505.173" fill="#2A3A50" width="4.162" height="4.162"/>
		<rect id="Rectangle_24279_2_" x="-7078.173" y="-2486.445" fill="#2A3A50" width="4.162" height="4.162"/>
		<rect id="Rectangle_24283_2_" x="-7078.173" y="-2467.717" fill="#2A3A50" width="4.162" height="4.162"/>
	</g>
	<g id="Group_34828_2_" transform="translate(7156 2655)">
		<rect id="Rectangle_24271-2_2_" x="-7137.271" y="-2523.902" fill="#2A3A50" width="4.162" height="4.162"/>
		<rect id="Rectangle_24313_2_" x="-7156" y="-2523.902" fill="#2A3A50" width="4.162" height="4.162"/>
		<rect id="Rectangle_24278-2_2_" x="-7137.271" y="-2505.173" fill="#2A3A50" width="4.162" height="4.162"/>
		<rect id="Rectangle_24312_2_" x="-7156" y="-2505.173" fill="#2A3A50" width="4.162" height="4.162"/>
		<rect id="Rectangle_24282-2_2_" x="-7137.271" y="-2486.445" fill="#2A3A50" width="4.162" height="4.162"/>
		<rect id="Rectangle_24311_2_" x="-7156" y="-2486.445" fill="#2A3A50" width="4.162" height="4.162"/>
		<rect id="Rectangle_24286-2_2_" x="-7137.271" y="-2467.717" fill="#2A3A50" width="4.162" height="4.162"/>
		<rect id="Rectangle_24310_2_" x="-7156" y="-2467.717" fill="#2A3A50" width="4.162" height="4.162"/>
		<rect id="Rectangle_24272-2_2_" x="-7118.543" y="-2523.902" fill="#2A3A50" width="4.162" height="4.162"/>
		<rect id="Rectangle_24277-2_2_" x="-7118.543" y="-2505.173" fill="#2A3A50" width="4.162" height="4.162"/>
		<rect id="Rectangle_24281-2_2_" x="-7118.543" y="-2486.445" fill="#2A3A50" width="4.162" height="4.162"/>
		<rect id="Rectangle_24285-2_2_" x="-7118.543" y="-2467.717" fill="#2A3A50" width="4.162" height="4.162"/>
		<rect id="Rectangle_24273-2_2_" x="-7099.815" y="-2523.902" fill="#2A3A50" width="4.162" height="4.162"/>
		<rect id="Rectangle_24276-2_2_" x="-7099.815" y="-2505.173" fill="#2A3A50" width="4.162" height="4.162"/>
		<rect id="Rectangle_24280-2_2_" x="-7099.815" y="-2486.445" fill="#2A3A50" width="4.162" height="4.162"/>
		<rect id="Rectangle_24284-2_2_" x="-7099.815" y="-2467.717" fill="#2A3A50" width="4.162" height="4.162"/>
		<rect id="Rectangle_24274-2_2_" x="-7081.087" y="-2523.902" fill="#2A3A50" width="4.162" height="4.162"/>
		<rect id="Rectangle_24275-2_2_" x="-7081.087" y="-2505.173" fill="#2A3A50" width="4.162" height="4.162"/>
		<rect id="Rectangle_24279-2_2_" x="-7081.087" y="-2486.445" fill="#2A3A50" width="4.162" height="4.162"/>
		<rect id="Rectangle_24283-2_2_" x="-7081.087" y="-2467.717" fill="#2A3A50" width="4.162" height="4.162"/>
	</g>
	<rect id="Rectangle_24681_2_" x="112.37" fill="#2A3A50" width="4.162" height="4.162"/>
	<rect id="Rectangle_24686_2_" x="112.37" y="18.728" fill="#2A3A50" width="4.162" height="4.162"/>
	<rect id="Rectangle_24693_2_" x="131.098" fill="#2A3A50" width="4.162" height="4.162"/>
	<rect id="Rectangle_24695_2_" fill="#2A3A50" width="4.162" height="4.162"/>
	<rect id="Rectangle_24700_2_" x="131.098" y="18.728" fill="#2A3A50" width="4.162" height="4.162"/>
	<rect id="Rectangle_24702_2_" y="18.728" fill="#2A3A50" width="4.162" height="4.162"/>
	<rect id="Rectangle_24711_2_" x="18.728" fill="#2A3A50" width="4.162" height="4.162"/>
	<rect id="Rectangle_24718_2_" x="18.728" y="18.728" fill="#2A3A50" width="4.162" height="4.162"/>
	<rect id="Rectangle_24733_2_" x="37.457" fill="#2A3A50" width="4.162" height="4.162"/>
	<rect id="Rectangle_24740_2_" x="56.185" fill="#2A3A50" width="4.162" height="4.162"/>
	<rect id="Rectangle_24747_2_" x="74.913" fill="#2A3A50" width="4.162" height="4.162"/>
	<rect id="Rectangle_24754_2_" x="93.642" fill="#2A3A50" width="4.162" height="4.162"/>
	<rect id="Rectangle_24761_2_" x="37.457" y="18.728" fill="#2A3A50" width="4.162" height="4.162"/>
	<rect id="Rectangle_24768_2_" x="56.185" y="18.728" fill="#2A3A50" width="4.162" height="4.162"/>
	<rect id="Rectangle_24775_2_" x="74.913" y="18.728" fill="#2A3A50" width="4.162" height="4.162"/>
	<rect id="Rectangle_24782_2_" x="93.642" y="18.728" fill="#2A3A50" width="4.162" height="4.162"/>
	<rect id="Rectangle_24278-3_2_" x="243.468" y="37.457" fill="#2A3A50" width="4.162" height="4.162"/>
	<rect id="Rectangle_24282-3_2_" x="243.468" y="56.185" fill="#2A3A50" width="4.162" height="4.162"/>
	<rect id="Rectangle_24330_2_" x="243.468" y="93.642" fill="#2A3A50" width="4.162" height="4.162"/>
	<rect id="Rectangle_24344_2_" x="112.37" y="93.642" fill="#2A3A50" width="4.162" height="4.162"/>
	<rect id="Rectangle_24519_2_" x="112.37" y="56.185" fill="#2A3A50" width="4.162" height="4.162"/>
	<rect id="Rectangle_24539_2_" x="112.37" y="37.457" fill="#2A3A50" width="4.162" height="4.162"/>
	<rect id="Rectangle_24286-3_2_" x="243.468" y="74.913" fill="#2A3A50" width="4.162" height="4.162"/>
	<rect id="Rectangle_24323_2_" x="243.468" y="112.37" fill="#2A3A50" width="4.162" height="4.162"/>
	<rect id="Rectangle_24337_2_" x="112.37" y="112.37" fill="#2A3A50" width="4.162" height="4.162"/>
	<rect id="Rectangle_24520_2_" x="112.37" y="74.913" fill="#2A3A50" width="4.162" height="4.162"/>
	<rect id="Rectangle_24277-3_2_" x="262.197" y="37.457" fill="#2A3A50" width="4.162" height="4.162"/>
	<rect id="Rectangle_24281-3_2_" x="262.197" y="56.185" fill="#2A3A50" width="4.162" height="4.162"/>
	<rect id="Rectangle_24331_2_" x="262.197" y="93.642" fill="#2A3A50" width="4.162" height="4.162"/>
	<rect id="Rectangle_24345_2_" x="131.098" y="93.642" fill="#2A3A50" width="4.162" height="4.162"/>
	<rect id="Rectangle_24521_2_" x="131.098" y="56.185" fill="#2A3A50" width="4.162" height="4.162"/>
	<rect id="Rectangle_24540_2_" x="131.098" y="37.457" fill="#2A3A50" width="4.162" height="4.162"/>
	<rect id="Rectangle_24359_2_" y="93.642" fill="#2A3A50" width="4.162" height="4.162"/>
	<rect id="Rectangle_24506_2_" y="56.185" fill="#2A3A50" width="4.162" height="4.162"/>
	<rect id="Rectangle_24533_2_" y="37.457" fill="#2A3A50" width="4.162" height="4.162"/>
	<rect id="Rectangle_24285-3_2_" x="262.197" y="74.913" fill="#2A3A50" width="4.162" height="4.162"/>
	<rect id="Rectangle_24324_2_" x="262.197" y="112.37" fill="#2A3A50" width="4.162" height="4.162"/>
	<rect id="Rectangle_24338_2_" x="131.098" y="112.37" fill="#2A3A50" width="4.162" height="4.162"/>
	<rect id="Rectangle_24522_2_" x="131.098" y="74.913" fill="#2A3A50" width="4.162" height="4.162"/>
	<rect id="Rectangle_24352_2_" y="112.37" fill="#2A3A50" width="4.162" height="4.162"/>
	<rect id="Rectangle_24513_2_" y="74.913" fill="#2A3A50" width="4.162" height="4.162"/>
	<rect id="Rectangle_24276-3_2_" x="280.925" y="37.457" fill="#2A3A50" width="4.162" height="4.162"/>
	<rect id="Rectangle_24280-3_2_" x="280.925" y="56.185" fill="#2A3A50" width="4.162" height="4.162"/>
	<rect id="Rectangle_24332_2_" x="280.925" y="93.642" fill="#2A3A50" width="4.162" height="4.162"/>
	<rect id="Rectangle_24346_2_" x="149.827" y="93.642" fill="#2A3A50" width="4.162" height="4.162"/>
	<rect id="Rectangle_24523_2_" x="149.827" y="56.185" fill="#2A3A50" width="4.162" height="4.162"/>
	<rect id="Rectangle_24541_2_" x="149.827" y="37.457" fill="#2A3A50" width="4.162" height="4.162"/>
	<rect id="Rectangle_24360_2_" x="18.728" y="93.642" fill="#2A3A50" width="4.162" height="4.162"/>
	<rect id="Rectangle_24507_2_" x="18.728" y="56.185" fill="#2A3A50" width="4.162" height="4.162"/>
	<rect id="Rectangle_24534_2_" x="18.728" y="37.457" fill="#2A3A50" width="4.162" height="4.162"/>
	<rect id="Rectangle_24284-3_2_" x="280.925" y="74.913" fill="#2A3A50" width="4.162" height="4.162"/>
	<rect id="Rectangle_24325_2_" x="280.925" y="112.37" fill="#2A3A50" width="4.162" height="4.162"/>
	<rect id="Rectangle_24339_2_" x="149.827" y="112.37" fill="#2A3A50" width="4.162" height="4.162"/>
	<rect id="Rectangle_24524_2_" x="149.827" y="74.913" fill="#2A3A50" width="4.162" height="4.162"/>
	<rect id="Rectangle_24353_2_" x="18.728" y="112.37" fill="#2A3A50" width="4.162" height="4.162"/>
	<rect id="Rectangle_24514_2_" x="18.728" y="74.913" fill="#2A3A50" width="4.162" height="4.162"/>
	<rect id="Rectangle_24275-3_2_" x="299.653" y="37.457" fill="#2A3A50" width="4.162" height="4.162"/>
	<rect id="Rectangle_24288_2_" x="318.382" y="37.457" fill="#2A3A50" width="4.162" height="4.162"/>
	<rect id="Rectangle_24294_2_" x="337.11" y="37.457" fill="#2A3A50" width="4.162" height="4.162"/>
	<rect id="Rectangle_24316_2_" x="355.838" y="37.457" fill="#2A3A50" width="4.162" height="4.162"/>
	<rect id="Rectangle_24279-3_2_" x="299.653" y="56.185" fill="#2A3A50" width="4.162" height="4.162"/>
	<rect id="Rectangle_24333_2_" x="299.653" y="93.642" fill="#2A3A50" width="4.162" height="4.162"/>
	<rect id="Rectangle_24347_2_" x="168.555" y="93.642" fill="#2A3A50" width="4.162" height="4.162"/>
	<rect id="Rectangle_24525_2_" x="168.555" y="56.185" fill="#2A3A50" width="4.162" height="4.162"/>
	<rect id="Rectangle_24542_2_" x="168.555" y="37.457" fill="#2A3A50" width="4.162" height="4.162"/>
	<rect id="Rectangle_24361_2_" x="37.457" y="93.642" fill="#2A3A50" width="4.162" height="4.162"/>
	<rect id="Rectangle_24508_2_" x="37.457" y="56.185" fill="#2A3A50" width="4.162" height="4.162"/>
	<rect id="Rectangle_24535_2_" x="37.457" y="37.457" fill="#2A3A50" width="4.162" height="4.162"/>
	<rect id="Rectangle_24290_2_" x="318.382" y="56.185" fill="#2A3A50" width="4.162" height="4.162"/>
	<rect id="Rectangle_24334_2_" x="318.382" y="93.642" fill="#2A3A50" width="4.162" height="4.162"/>
	<rect id="Rectangle_24348_2_" x="187.283" y="93.642" fill="#2A3A50" width="4.162" height="4.162"/>
	<rect id="Rectangle_24527_2_" x="187.283" y="56.185" fill="#2A3A50" width="4.162" height="4.162"/>
	<rect id="Rectangle_24543_2_" x="187.283" y="37.457" fill="#2A3A50" width="4.162" height="4.162"/>
	<rect id="Rectangle_24362_2_" x="56.185" y="93.642" fill="#2A3A50" width="4.162" height="4.162"/>
	<rect id="Rectangle_24509_2_" x="56.185" y="56.185" fill="#2A3A50" width="4.162" height="4.162"/>
	<rect id="Rectangle_24536_2_" x="56.185" y="37.457" fill="#2A3A50" width="4.162" height="4.162"/>
	<rect id="Rectangle_24292_2_" x="337.11" y="56.185" fill="#2A3A50" width="4.162" height="4.162"/>
	<rect id="Rectangle_24335_2_" x="337.11" y="93.642" fill="#2A3A50" width="4.162" height="4.162"/>
	<rect id="Rectangle_24349_2_" x="206.012" y="93.642" fill="#2A3A50" width="4.162" height="4.162"/>
	<rect id="Rectangle_24529_2_" x="206.012" y="56.185" fill="#2A3A50" width="4.162" height="4.162"/>
	<rect id="Rectangle_24544_2_" x="206.012" y="37.457" fill="#2A3A50" width="4.162" height="4.162"/>
	<rect id="Rectangle_24363_2_" x="74.913" y="93.642" fill="#2A3A50" width="4.162" height="4.162"/>
	<rect id="Rectangle_24510_2_" x="74.913" y="56.185" fill="#2A3A50" width="4.162" height="4.162"/>
	<rect id="Rectangle_24537_2_" x="74.913" y="37.457" fill="#2A3A50" width="4.162" height="4.162"/>
	<rect id="Rectangle_24315_2_" x="355.838" y="56.185" fill="#2A3A50" width="4.162" height="4.162"/>
	<rect id="Rectangle_24336_2_" x="355.838" y="93.642" fill="#2A3A50" width="4.162" height="4.162"/>
	<rect id="Rectangle_24350_2_" x="224.74" y="93.642" fill="#2A3A50" width="4.162" height="4.162"/>
	<rect id="Rectangle_24531_2_" x="224.74" y="56.185" fill="#2A3A50" width="4.162" height="4.162"/>
	<rect id="Rectangle_24545_2_" x="224.74" y="37.457" fill="#2A3A50" width="4.162" height="4.162"/>
	<rect id="Rectangle_24364_2_" x="93.642" y="93.642" fill="#2A3A50" width="4.162" height="4.162"/>
	<rect id="Rectangle_24511_2_" x="93.642" y="56.185" fill="#2A3A50" width="4.162" height="4.162"/>
	<rect id="Rectangle_24538_2_" x="93.642" y="37.457" fill="#2A3A50" width="4.162" height="4.162"/>
	<rect id="Rectangle_24283-3_2_" x="299.653" y="74.913" fill="#2A3A50" width="4.162" height="4.162"/>
	<rect id="Rectangle_24326_2_" x="299.653" y="112.37" fill="#2A3A50" width="4.162" height="4.162"/>
	<rect id="Rectangle_24340_2_" x="168.555" y="112.37" fill="#2A3A50" width="4.162" height="4.162"/>
	<rect id="Rectangle_24526_2_" x="168.555" y="74.913" fill="#2A3A50" width="4.162" height="4.162"/>
	<rect id="Rectangle_24354_2_" x="37.457" y="112.37" fill="#2A3A50" width="4.162" height="4.162"/>
	<rect id="Rectangle_24515_2_" x="37.457" y="74.913" fill="#2A3A50" width="4.162" height="4.162"/>
	<rect id="Rectangle_24291_2_" x="318.382" y="74.913" fill="#2A3A50" width="4.162" height="4.162"/>
	<rect id="Rectangle_24327_2_" x="318.382" y="112.37" fill="#2A3A50" width="4.162" height="4.162"/>
	<rect id="Rectangle_24341_2_" x="187.283" y="112.37" fill="#2A3A50" width="4.162" height="4.162"/>
	<rect id="Rectangle_24528_2_" x="187.283" y="74.913" fill="#2A3A50" width="4.162" height="4.162"/>
	<rect id="Rectangle_24355_2_" x="56.185" y="112.37" fill="#2A3A50" width="4.162" height="4.162"/>
	<rect id="Rectangle_24516_2_" x="56.185" y="74.913" fill="#2A3A50" width="4.162" height="4.162"/>
	<rect id="Rectangle_24293_2_" x="337.11" y="74.913" fill="#2A3A50" width="4.162" height="4.162"/>
	<rect id="Rectangle_24328_2_" x="337.11" y="112.37" fill="#2A3A50" width="4.162" height="4.162"/>
	<rect id="Rectangle_24342_2_" x="206.012" y="112.37" fill="#2A3A50" width="4.162" height="4.162"/>
	<rect id="Rectangle_24530_2_" x="206.012" y="74.913" fill="#2A3A50" width="4.162" height="4.162"/>
	<rect id="Rectangle_24356_2_" x="74.913" y="112.37" fill="#2A3A50" width="4.162" height="4.162"/>
	<rect id="Rectangle_24517_2_" x="74.913" y="74.913" fill="#2A3A50" width="4.162" height="4.162"/>
	<rect id="Rectangle_24314_2_" x="355.838" y="74.913" fill="#2A3A50" width="4.162" height="4.162"/>
	<rect id="Rectangle_24329_2_" x="355.838" y="112.37" fill="#2A3A50" width="4.162" height="4.162"/>
	<rect id="Rectangle_24343_2_" x="224.74" y="112.37" fill="#2A3A50" width="4.162" height="4.162"/>
	<rect id="Rectangle_24532_2_" x="224.74" y="74.913" fill="#2A3A50" width="4.162" height="4.162"/>
	<rect id="Rectangle_24357_2_" x="93.642" y="112.37" fill="#2A3A50" width="4.162" height="4.162"/>
	<rect id="Rectangle_24518_2_" x="93.642" y="74.913" fill="#2A3A50" width="4.162" height="4.162"/>
	<g id="Group_34830_2_" transform="translate(7300 2655)">
		<rect id="Rectangle_24271-3_2_" x="-7131.445" y="-2523.902" fill="#2A3A50" width="4.162" height="4.162"/>
		<rect id="Rectangle_24278-4_2_" x="-7131.445" y="-2505.173" fill="#2A3A50" width="4.162" height="4.162"/>
		<rect id="Rectangle_24282-4_2_" x="-7131.445" y="-2486.445" fill="#2A3A50" width="4.162" height="4.162"/>
		<rect id="Rectangle_24304_2_" x="-7187.63" y="-2486.445" fill="#2A3A50" width="4.162" height="4.162"/>
		<rect id="Rectangle_24286-4_2_" x="-7131.445" y="-2467.717" fill="#2A3A50" width="4.162" height="4.162"/>
		<rect id="Rectangle_24305_2_" x="-7187.63" y="-2467.717" fill="#2A3A50" width="4.162" height="4.162"/>
		<rect id="Rectangle_24272-3_2_" x="-7112.717" y="-2523.902" fill="#2A3A50" width="4.162" height="4.162"/>
		<rect id="Rectangle_24277-4_2_" x="-7112.717" y="-2505.173" fill="#2A3A50" width="4.162" height="4.162"/>
		<rect id="Rectangle_24281-4_2_" x="-7112.717" y="-2486.445" fill="#2A3A50" width="4.162" height="4.162"/>
		<rect id="Rectangle_24307_2_" x="-7168.902" y="-2486.445" fill="#2A3A50" width="4.162" height="4.162"/>
		<rect id="Rectangle_24285-4_2_" x="-7112.717" y="-2467.717" fill="#2A3A50" width="4.162" height="4.162"/>
		<rect id="Rectangle_24306_2_" x="-7168.902" y="-2467.717" fill="#2A3A50" width="4.162" height="4.162"/>
		<rect id="Rectangle_24273-3_2_" x="-7093.988" y="-2523.902" fill="#2A3A50" width="4.162" height="4.162"/>
		<rect id="Rectangle_24276-4_2_" x="-7093.988" y="-2505.173" fill="#2A3A50" width="4.162" height="4.162"/>
		<rect id="Rectangle_24280-4_2_" x="-7093.988" y="-2486.445" fill="#2A3A50" width="4.162" height="4.162"/>
		<rect id="Rectangle_24308_2_" x="-7150.173" y="-2486.445" fill="#2A3A50" width="4.162" height="4.162"/>
		<rect id="Rectangle_24284-4_2_" x="-7093.988" y="-2467.717" fill="#2A3A50" width="4.162" height="4.162"/>
		<rect id="Rectangle_24309_2_" x="-7150.173" y="-2467.717" fill="#2A3A50" width="4.162" height="4.162"/>
		<rect id="Rectangle_24274-3_2_" x="-7075.26" y="-2523.902" fill="#2A3A50" width="4.162" height="4.162"/>
		<rect id="Rectangle_24275-4_2_" x="-7075.26" y="-2505.173" fill="#2A3A50" width="4.162" height="4.162"/>
		<rect id="Rectangle_24279-4_2_" x="-7075.26" y="-2486.445" fill="#2A3A50" width="4.162" height="4.162"/>
		<rect id="Rectangle_24283-4_2_" x="-7075.26" y="-2467.717" fill="#2A3A50" width="4.162" height="4.162"/>
	</g>
	<rect id="Rectangle_24675_2_" x="243.468" y="131.098" fill="#2A3A50" width="4.162" height="4.162"/>
	<rect id="Rectangle_24676_2_" x="243.468" y="149.827" fill="#2A3A50" width="4.162" height="4.162"/>
	<rect id="Rectangle_24677_2_" x="243.468" y="168.555" fill="#2A3A50" width="4.162" height="4.162"/>
	<rect id="Rectangle_24678_2_" x="243.468" y="206.012" fill="#2A3A50" width="4.162" height="4.162"/>
	<rect id="Rectangle_24679_2_" x="243.468" fill="#2A3A50" width="4.162" height="4.162"/>
	<rect id="Rectangle_24680_2_" x="112.37" y="206.012" fill="#2A3A50" width="4.162" height="4.162"/>
	<rect id="Rectangle_24682_2_" x="243.468" y="187.283" fill="#2A3A50" width="4.162" height="4.162"/>
	<rect id="Rectangle_24683_2_" x="243.468" y="224.74" fill="#2A3A50" width="4.162" height="4.162"/>
	<rect id="Rectangle_24684_2_" x="243.468" y="18.728" fill="#2A3A50" width="4.162" height="4.162"/>
	<rect id="Rectangle_24685_2_" x="112.37" y="224.74" fill="#2A3A50" width="4.162" height="4.162"/>
	<rect id="Rectangle_24687_2_" x="262.197" y="131.098" fill="#2A3A50" width="4.162" height="4.162"/>
	<rect id="Rectangle_24688_2_" x="262.197" y="149.827" fill="#2A3A50" width="4.162" height="4.162"/>
	<rect id="Rectangle_24689_2_" x="262.197" y="168.555" fill="#2A3A50" width="4.162" height="4.162"/>
	<rect id="Rectangle_24690_2_" x="262.197" y="206.012" fill="#2A3A50" width="4.162" height="4.162"/>
	<rect id="Rectangle_24691_2_" x="262.197" fill="#2A3A50" width="4.162" height="4.162"/>
	<rect id="Rectangle_24692_2_" x="131.098" y="206.012" fill="#2A3A50" width="4.162" height="4.162"/>
	<rect id="Rectangle_24694_2_" y="206.012" fill="#2A3A50" width="4.162" height="4.162"/>
	<rect id="Rectangle_24696_2_" x="262.197" y="187.283" fill="#2A3A50" width="4.162" height="4.162"/>
	<rect id="Rectangle_24697_2_" x="262.197" y="224.74" fill="#2A3A50" width="4.162" height="4.162"/>
	<rect id="Rectangle_24698_2_" x="262.197" y="18.728" fill="#2A3A50" width="4.162" height="4.162"/>
	<rect id="Rectangle_24699_2_" x="131.098" y="224.74" fill="#2A3A50" width="4.162" height="4.162"/>
	<rect id="Rectangle_24701_2_" y="224.74" fill="#2A3A50" width="4.162" height="4.162"/>
	<rect id="Rectangle_24703_2_" x="280.925" y="131.098" fill="#2A3A50" width="4.162" height="4.162"/>
	<rect id="Rectangle_24704_2_" x="280.925" y="149.827" fill="#2A3A50" width="4.162" height="4.162"/>
	<rect id="Rectangle_24705_2_" x="280.925" y="168.555" fill="#2A3A50" width="4.162" height="4.162"/>
	<rect id="Rectangle_24706_2_" x="280.925" y="206.012" fill="#2A3A50" width="4.162" height="4.162"/>
	<rect id="Rectangle_24707_2_" x="280.925" fill="#2A3A50" width="4.162" height="4.162"/>
	<rect id="Rectangle_24708_2_" x="149.827" y="206.012" fill="#2A3A50" width="4.162" height="4.162"/>
	<rect id="Rectangle_24709_2_" x="149.827" fill="#2A3A50" width="4.162" height="4.162"/>
	<rect id="Rectangle_24710_2_" x="18.728" y="206.012" fill="#2A3A50" width="4.162" height="4.162"/>
	<rect id="Rectangle_24712_2_" x="280.925" y="187.283" fill="#2A3A50" width="4.162" height="4.162"/>
	<rect id="Rectangle_24713_2_" x="280.925" y="224.74" fill="#2A3A50" width="4.162" height="4.162"/>
	<rect id="Rectangle_24714_2_" x="280.925" y="18.728" fill="#2A3A50" width="4.162" height="4.162"/>
	<rect id="Rectangle_24715_2_" x="149.827" y="224.74" fill="#2A3A50" width="4.162" height="4.162"/>
	<rect id="Rectangle_24716_2_" x="149.827" y="18.728" fill="#2A3A50" width="4.162" height="4.162"/>
	<rect id="Rectangle_24717_2_" x="18.728" y="224.74" fill="#2A3A50" width="4.162" height="4.162"/>
	<rect id="Rectangle_24730_2_" x="168.555" y="206.012" fill="#2A3A50" width="4.162" height="4.162"/>
	<rect id="Rectangle_24731_2_" x="168.555" fill="#2A3A50" width="4.162" height="4.162"/>
	<rect id="Rectangle_24732_2_" x="37.457" y="206.012" fill="#2A3A50" width="4.162" height="4.162"/>
	<rect id="Rectangle_24737_2_" x="187.283" y="206.012" fill="#2A3A50" width="4.162" height="4.162"/>
	<rect id="Rectangle_24738_2_" x="187.283" fill="#2A3A50" width="4.162" height="4.162"/>
	<rect id="Rectangle_24739_2_" x="56.185" y="206.012" fill="#2A3A50" width="4.162" height="4.162"/>
	<rect id="Rectangle_24744_2_" x="206.012" y="206.012" fill="#2A3A50" width="4.162" height="4.162"/>
	<rect id="Rectangle_24745_2_" x="206.012" fill="#2A3A50" width="4.162" height="4.162"/>
	<rect id="Rectangle_24746_2_" x="74.913" y="206.012" fill="#2A3A50" width="4.162" height="4.162"/>
	<rect id="Rectangle_24751_2_" x="224.74" y="206.012" fill="#2A3A50" width="4.162" height="4.162"/>
	<rect id="Rectangle_24752_2_" x="224.74" fill="#2A3A50" width="4.162" height="4.162"/>
	<rect id="Rectangle_24753_2_" x="93.642" y="206.012" fill="#2A3A50" width="4.162" height="4.162"/>
	<rect id="Rectangle_24758_2_" x="168.555" y="224.74" fill="#2A3A50" width="4.162" height="4.162"/>
	<rect id="Rectangle_24759_2_" x="168.555" y="18.728" fill="#2A3A50" width="4.162" height="4.162"/>
	<rect id="Rectangle_24760_2_" x="37.457" y="224.74" fill="#2A3A50" width="4.162" height="4.162"/>
	<rect id="Rectangle_24765_2_" x="187.283" y="224.74" fill="#2A3A50" width="4.162" height="4.162"/>
	<rect id="Rectangle_24766_2_" x="187.283" y="18.728" fill="#2A3A50" width="4.162" height="4.162"/>
	<rect id="Rectangle_24767_2_" x="56.185" y="224.74" fill="#2A3A50" width="4.162" height="4.162"/>
	<rect id="Rectangle_24772_2_" x="206.012" y="224.74" fill="#2A3A50" width="4.162" height="4.162"/>
	<rect id="Rectangle_24773_2_" x="206.012" y="18.728" fill="#2A3A50" width="4.162" height="4.162"/>
	<rect id="Rectangle_24774_2_" x="74.913" y="224.74" fill="#2A3A50" width="4.162" height="4.162"/>
	<rect id="Rectangle_24779_2_" x="224.74" y="224.74" fill="#2A3A50" width="4.162" height="4.162"/>
	<rect id="Rectangle_24780_2_" x="224.74" y="18.728" fill="#2A3A50" width="4.162" height="4.162"/>
	<rect id="Rectangle_24781_2_" x="93.642" y="224.74" fill="#2A3A50" width="4.162" height="4.162"/>
	<rect id="Rectangle_24719_2_" x="299.653" y="131.098" fill="#2A3A50" width="4.162" height="4.162"/>
	<rect id="Rectangle_24720_2_" x="318.382" y="131.098" fill="#2A3A50" width="4.162" height="4.162"/>
	<rect id="Rectangle_24721_2_" x="337.11" y="131.098" fill="#2A3A50" width="4.162" height="4.162"/>
	<rect id="Rectangle_24722_2_" x="355.838" y="131.098" fill="#2A3A50" width="4.162" height="4.162"/>
	<rect id="Rectangle_24723_2_" x="299.653" y="149.827" fill="#2A3A50" width="4.162" height="4.162"/>
	<rect id="Rectangle_24724_2_" x="318.382" y="149.827" fill="#2A3A50" width="4.162" height="4.162"/>
	<rect id="Rectangle_24725_2_" x="337.11" y="149.827" fill="#2A3A50" width="4.162" height="4.162"/>
	<rect id="Rectangle_24726_2_" x="355.838" y="149.827" fill="#2A3A50" width="4.162" height="4.162"/>
	<rect id="Rectangle_24727_2_" x="299.653" y="168.555" fill="#2A3A50" width="4.162" height="4.162"/>
	<rect id="Rectangle_24728_2_" x="299.653" y="206.012" fill="#2A3A50" width="4.162" height="4.162"/>
	<rect id="Rectangle_24729_2_" x="299.653" fill="#2A3A50" width="4.162" height="4.162"/>
	<rect id="Rectangle_24734_2_" x="318.382" y="168.555" fill="#2A3A50" width="4.162" height="4.162"/>
	<rect id="Rectangle_24735_2_" x="318.382" y="206.012" fill="#2A3A50" width="4.162" height="4.162"/>
	<rect id="Rectangle_24736_2_" x="318.382" fill="#2A3A50" width="4.162" height="4.162"/>
	<rect id="Rectangle_24741_2_" x="337.11" y="168.555" fill="#2A3A50" width="4.162" height="4.162"/>
	<rect id="Rectangle_24742_2_" x="337.11" y="206.012" fill="#2A3A50" width="4.162" height="4.162"/>
	<rect id="Rectangle_24743_2_" x="337.11" fill="#2A3A50" width="4.162" height="4.162"/>
	<rect id="Rectangle_24748_2_" x="355.838" y="168.555" fill="#2A3A50" width="4.162" height="4.162"/>
	<rect id="Rectangle_24749_2_" x="355.838" y="206.012" fill="#2A3A50" width="4.162" height="4.162"/>
	<rect id="Rectangle_24750_2_" x="355.838" fill="#2A3A50" width="4.162" height="4.162"/>
	<rect id="Rectangle_24755_2_" x="299.653" y="187.283" fill="#2A3A50" width="4.162" height="4.162"/>
	<rect id="Rectangle_24756_2_" x="299.653" y="224.74" fill="#2A3A50" width="4.162" height="4.162"/>
	<rect id="Rectangle_24757_2_" x="299.653" y="18.728" fill="#2A3A50" width="4.162" height="4.162"/>
	<rect id="Rectangle_24762_2_" x="318.382" y="187.283" fill="#2A3A50" width="4.162" height="4.162"/>
	<rect id="Rectangle_24763_2_" x="318.382" y="224.74" fill="#2A3A50" width="4.162" height="4.162"/>
	<rect id="Rectangle_24764_2_" x="318.382" y="18.728" fill="#2A3A50" width="4.162" height="4.162"/>
	<rect id="Rectangle_24769_2_" x="337.11" y="187.283" fill="#2A3A50" width="4.162" height="4.162"/>
	<rect id="Rectangle_24770_2_" x="337.11" y="224.74" fill="#2A3A50" width="4.162" height="4.162"/>
	<rect id="Rectangle_24771_2_" x="337.11" y="18.728" fill="#2A3A50" width="4.162" height="4.162"/>
	<rect id="Rectangle_24776_2_" x="355.838" y="187.283" fill="#2A3A50" width="4.162" height="4.162"/>
	<rect id="Rectangle_24777_2_" x="355.838" y="224.74" fill="#2A3A50" width="4.162" height="4.162"/>
	<rect id="Rectangle_24778_2_" x="355.838" y="18.728" fill="#2A3A50" width="4.162" height="4.162"/>
</g>
</svg>
