<?xml version="1.0" encoding="utf-8"?>
<!-- Generator: Adobe Illustrator 22.0.1, SVG Export Plug-In . SVG Version: 6.00 Build 0)  -->
<svg version="1.1" id="Layer_1" xmlns="http://www.w3.org/2000/svg" xmlns:xlink="http://www.w3.org/1999/xlink" x="0px" y="0px"
	 viewBox="0 0 26 26" enable-background="new 0 0 26 26" xml:space="preserve">
<g id="Group_35275_1_" transform="translate(33.572 -74.492)">
	<g id="Group_34787_1_" transform="translate(119.847 100.5)">
		<g id="Rectangle_23279_1_">
			<path d="M-143.982-16.476h-2.088c-0.482,0-0.874-0.392-0.874-0.874v-3.894c0-0.482,0.392-0.874,0.874-0.874h2.088
				c0.482,0,0.874,0.392,0.874,0.874v3.894C-143.108-16.868-143.501-16.476-143.982-16.476z M-145.944-17.476h1.836v-3.642h-1.836
				V-17.476z"/>
		</g>
		<g id="Rectangle_23280_1_">
			<path d="M-134.768-16.476h-2.088c-0.482,0-0.874-0.392-0.874-0.874v-3.894c0-0.482,0.392-0.874,0.874-0.874h2.088
				c0.482,0,0.874,0.392,0.874,0.874v3.894C-133.894-16.868-134.286-16.476-134.768-16.476z M-136.73-17.476h1.836v-3.642h-1.836
				V-17.476z"/>
		</g>
		<g id="Path_67820_9_">
			<rect x="-143.33" y="-19.887" width="6.103" height="1"/>
		</g>
		<g id="Path_67822_9_">
			<rect x="-140.919" y="-19.387" width="1" height="12.912"/>
		</g>
		<g id="Path_76916_1_">
			<polygon points="-138.429,-4.898 -142.306,-4.898 -142.306,-6.474 -141.306,-6.474 -141.306,-5.898 -139.429,-5.898 
				-139.429,-6.474 -138.429,-6.474 			"/>
		</g>
		<g id="Path_67821_9_">
			<rect x="-143.608" y="-7.22" width="6.377" height="1"/>
		</g>
		<g id="Rectangle_23281_1_">
			<path d="M-143.982-3.898h-2.088c-0.482,0-0.874-0.392-0.874-0.874v-3.894c0-0.482,0.392-0.874,0.874-0.874h2.088
				c0.482,0,0.874,0.392,0.874,0.874v3.894C-143.108-4.29-143.501-3.898-143.982-3.898z M-145.944-4.898h1.836V-8.54h-1.836V-4.898z
				"/>
		</g>
		<g id="Rectangle_23282_1_">
			<path d="M-134.768-3.898h-2.088c-0.482,0-0.874-0.392-0.874-0.874v-3.894c0-0.482,0.392-0.874,0.874-0.874h2.088
				c0.482,0,0.874,0.392,0.874,0.874v3.894C-133.894-4.29-134.286-3.898-134.768-3.898z M-136.73-4.898h1.836V-8.54h-1.836V-4.898z"
				/>
		</g>
	</g>
</g>
</svg>
