<?xml version="1.0" encoding="utf-8"?>
<!-- Generator: Adobe Illustrator 22.0.1, SVG Export Plug-In . SVG Version: 6.00 Build 0)  -->
<svg version="1.1" id="Layer_1" xmlns="http://www.w3.org/2000/svg" xmlns:xlink="http://www.w3.org/1999/xlink" x="0px" y="0px"
	 viewBox="0 0 26 26" enable-background="new 0 0 26 26" xml:space="preserve">
<g id="Container-368_1_" transform="translate(20.555 20.449)">
	<g id="Path_71370_20_">
		<path d="M-12.859,2.026c-0.303,0-0.607-0.08-0.878-0.24l-4.169-2.365c-0.513-0.314-0.821-0.868-0.818-1.452v-4.852
			c-0.003-0.583,0.304-1.137,0.803-1.442l14.693-8.252c0.531-0.313,1.201-0.313,1.74,0.005L2.79-14.21
			c0.519,0.319,0.826,0.873,0.822,1.457V-7.9c0,0.1-0.03,0.196-0.085,0.279L3.299-7.282C3.258-7.221,3.204-7.169,3.141-7.132
			L-7.806-0.585l-4.188,2.375C-12.259,1.947-12.558,2.026-12.859,2.026z M-2.366-15.81c-0.127,0-0.252,0.033-0.364,0.099
			l-14.685,8.247c-0.188,0.117-0.311,0.337-0.309,0.578v4.856c-0.001,0.24,0.124,0.465,0.326,0.59l4.162,2.36
			c0.234,0.138,0.515,0.138,0.741,0.004l4.186-2.373L2.532-7.933l0.081-0.119v-4.704C2.614-13,2.492-13.22,2.286-13.347
			l-4.269-2.357C-2.104-15.776-2.236-15.81-2.366-15.81z M3.112-7.9h0.01H3.112z"/>
	</g>
	<g id="Union_7_29_">
		<path d="M-12.633,1.912c-0.303,0-0.607-0.08-0.878-0.24l-4.169-2.365c-0.099-0.064-0.173-0.102-0.245-0.14
			c-0.292-0.153-0.781-0.409-0.781-1.053v-1.917c0-0.276,0.224-0.5,0.5-0.5s0.5,0.224,0.5,0.5v1.917
			c0.024,0.052,0.158,0.121,0.246,0.167c0.102,0.054,0.206,0.109,0.304,0.175l4.147,2.351c0.234,0.137,0.515,0.137,0.74,0.004
			l4.186-2.373L2.613-7.959v-4.91c0.001-0.239-0.124-0.464-0.326-0.589l-4.162-2.36c-0.234-0.137-0.515-0.139-0.741-0.004
			c-0.237,0.141-0.544,0.062-0.685-0.176c-0.141-0.238-0.062-0.545,0.175-0.686c0.54-0.317,1.211-0.319,1.751,0l4.169,2.365
			c0.513,0.314,0.821,0.867,0.818,1.451v5.191c0,0.176-0.092,0.339-0.243,0.429L-7.58-0.7l-4.188,2.375
			C-12.033,1.833-12.332,1.912-12.633,1.912z"/>
	</g>
	<g id="Line_440_23_">
		<path d="M-9.983-5.706c-0.083,0-0.168-0.021-0.246-0.064l-5.193-2.936c-0.24-0.136-0.325-0.441-0.189-0.682
			c0.136-0.241,0.441-0.326,0.681-0.189l5.193,2.936c0.24,0.136,0.325,0.441,0.189,0.682C-9.639-5.797-9.809-5.706-9.983-5.706z"/>
	</g>
	<g id="Path_68275_24_">
		<path d="M-12.466-4.125c-0.086,0-0.172-0.022-0.249-0.066l-5.306-3.048c-0.239-0.138-0.322-0.443-0.185-0.683
			c0.137-0.239,0.442-0.322,0.683-0.185l5.059,2.906L2.3-13.528c0.241-0.136,0.546-0.05,0.681,0.189
			c0.136,0.241,0.051,0.546-0.19,0.682L-12.221-4.19C-12.297-4.147-12.382-4.125-12.466-4.125z"/>
	</g>
	<g id="Line_441_24_">
		<path d="M-12.692,1.745c-0.276,0-0.5-0.224-0.5-0.5v-5.979c0-0.276,0.224-0.5,0.5-0.5s0.5,0.224,0.5,0.5v5.979
			C-12.192,1.521-12.416,1.745-12.692,1.745z"/>
	</g>
</g>
</svg>
