<?xml version="1.0" encoding="utf-8"?>
<!-- Generator: Adobe Illustrator 22.0.1, SVG Export Plug-In . SVG Version: 6.00 Build 0)  -->
<svg version="1.1" id="Layer_1" xmlns="http://www.w3.org/2000/svg" xmlns:xlink="http://www.w3.org/1999/xlink" x="0px" y="0px"
	 viewBox="0 0 26 26" enable-background="new 0 0 26 26" xml:space="preserve">
<g>
	<g>
		<g id="Path_82558_3_">
			<path d="M17.504,8.949H5.67c-0.276,0-0.5-0.224-0.5-0.5s0.224-0.5,0.5-0.5h11.834c0.276,0,0.5,0.224,0.5,0.5
				S17.78,8.949,17.504,8.949z"/>
		</g>
		<g id="Path_82561_3_">
			<path d="M20.948,13.5H9.113c-0.276,0-0.5-0.224-0.5-0.5s0.224-0.5,0.5-0.5h11.835c0.276,0,0.5,0.224,0.5,0.5
				S21.224,13.5,20.948,13.5z"/>
		</g>
		<g id="Path_82559_3_">
			<path d="M17.504,18.051H5.67c-0.276,0-0.5-0.224-0.5-0.5s0.224-0.5,0.5-0.5h11.834c0.276,0,0.5,0.224,0.5,0.5
				S17.78,18.051,17.504,18.051z"/>
		</g>
	</g>
	<g>
		<path d="M23.122,22.327H2.878c-0.743,0-1.348-0.605-1.348-1.349V5.022c0-0.743,0.605-1.349,1.348-1.349h20.245
			c0.743,0,1.348,0.605,1.348,1.349v15.957C24.47,21.722,23.865,22.327,23.122,22.327z M2.878,4.673
			c-0.192,0-0.348,0.156-0.348,0.349v15.957c0,0.192,0.156,0.349,0.348,0.349h20.245c0.192,0,0.348-0.156,0.348-0.349V5.022
			c0-0.192-0.156-0.349-0.348-0.349H2.878z"/>
	</g>
</g>
</svg>
