<?xml version="1.0" encoding="utf-8"?>
<!-- Generator: Adobe Illustrator 22.0.1, SVG Export Plug-In . SVG Version: 6.00 Build 0)  -->
<svg version="1.1" id="Layer_1" xmlns="http://www.w3.org/2000/svg" xmlns:xlink="http://www.w3.org/1999/xlink" x="0px" y="0px"
	 viewBox="0 0 26 26" enable-background="new 0 0 26 26" xml:space="preserve">
<g id="Edit-443_3_" transform="translate(49.869 156.917)">
	<g id="Path_82594_3_">
		<path d="M-45.945-133.893c-0.125,0-0.249-0.047-0.343-0.136c-0.133-0.126-0.187-0.313-0.141-0.49l1.119-4.282
			c0.021-0.08,0.061-0.152,0.116-0.213l13.604-14.767c0.09-0.098,0.215-0.155,0.348-0.161c0.126,0.002,0.262,0.044,0.359,0.133
			l3.152,2.92c0.097,0.091,0.155,0.216,0.16,0.349c0.005,0.132-0.042,0.261-0.133,0.358l-13.68,14.76
			c-0.058,0.063-0.131,0.109-0.211,0.136l-4.196,1.369C-45.84-133.9-45.893-133.893-45.945-133.893z M-44.373-138.428l-0.856,3.275
			l3.202-1.045l13.251-14.297l-2.417-2.239L-44.373-138.428z"/>
	</g>
	<g id="Line_1343_3_">
		<path d="M-27.794-133.893h-11.34c-0.276,0-0.5-0.224-0.5-0.5s0.224-0.5,0.5-0.5h11.34c0.276,0,0.5,0.224,0.5,0.5
			S-27.517-133.893-27.794-133.893z"/>
	</g>
</g>
</svg>
