<?xml version="1.0" encoding="utf-8"?>
<!-- Generator: Adobe Illustrator 22.0.1, SVG Export Plug-In . SVG Version: 6.00 Build 0)  -->
<svg version="1.1" id="Layer_1" xmlns="http://www.w3.org/2000/svg" xmlns:xlink="http://www.w3.org/1999/xlink" x="0px" y="0px"
	 viewBox="0 0 26 26" enable-background="new 0 0 26 26" xml:space="preserve">
<g id="Empty-393_3_" transform="translate(48.752 875.948)">
	<g id="Path_82362_3_">
		<path d="M-26.105-853.902h-19.294c-1.107,0-2.009-0.901-2.009-2.009v-8.444c0-0.536,0.21-1.041,0.59-1.42
			c0.379-0.379,0.883-0.588,1.419-0.588c0.001,0,0.002,0,0.002,0h4.283c0.001,0,0.002,0,0.003,0c0.884,0,1.654,0.566,1.918,1.409
			l0.361,1.156c0.133,0.424,0.519,0.708,0.962,0.708c0.001,0,0.002,0,0.003,0h4.224c0.001,0,0.002,0,0.003,0
			c0.445,0,0.831-0.284,0.964-0.708l0.36-1.156c0.265-0.843,1.036-1.409,1.919-1.409c0.001,0,0.002,0,0.003,0h4.287
			c1.107,0,2.009,0.901,2.009,2.009v8.443C-24.096-854.804-24.997-853.902-26.105-853.902z M-46.408-864.354v8.442
			c0,0.557,0.453,1.009,1.009,1.009h19.294c0.556,0,1.009-0.452,1.009-1.009v-8.443c0-0.557-0.453-1.009-1.009-1.009h-4.288
			c0,0-0.001,0-0.001,0c-0.445,0-0.833,0.284-0.966,0.708l-0.361,1.156c-0.264,0.844-1.033,1.409-1.917,1.409
			c-0.002,0-0.004,0-0.006,0h-4.221c-0.002,0-0.004,0-0.006,0c-0.882,0-1.651-0.565-1.915-1.409l-0.361-1.156
			c-0.133-0.424-0.52-0.708-0.964-0.708c0,0-0.001,0-0.001,0h-4.284c0,0-0.001,0-0.001,0
			C-45.954-865.363-46.408-864.911-46.408-864.354z"/>
	</g>
	<g id="Path_82363_3_">
		<path d="M-46.312-864.801l-0.752-0.66l5.067-5.776c0.453-0.484,1.077-0.756,1.723-0.756c0.003,0,0.006,0,0.009,0h9.646
			c0.716-0.022,1.363,0.31,1.812,0.854l4.183,5.428l-0.792,0.611l-4.173-5.415c-0.247-0.299-0.625-0.478-1.026-0.478
			c-0.001,0-0.002,0-0.002,0h-9.649c-0.001,0-0.003,0-0.005,0c-0.373,0-0.73,0.155-0.983,0.427L-46.312-864.801z"/>
	</g>
</g>
</svg>
