<?xml version="1.0" encoding="utf-8"?>
<!-- Generator: Adobe Illustrator 22.0.1, SVG Export Plug-In . SVG Version: 6.00 Build 0)  -->
<svg version="1.1" id="Layer_1" xmlns="http://www.w3.org/2000/svg" xmlns:xlink="http://www.w3.org/1999/xlink" x="0px" y="0px"
	 viewBox="0 0 26 26" enable-background="new 0 0 26 26" xml:space="preserve">
<g>
	<path d="M15.354,16.807h-4.709c-0.801,0-1.453-0.652-1.453-1.453v-4.708c0-0.801,0.652-1.453,1.453-1.453h4.709
		c0.801,0,1.453,0.652,1.453,1.453v4.708C16.808,16.155,16.156,16.807,15.354,16.807z M10.646,10.193
		c-0.25,0-0.453,0.203-0.453,0.453v4.708c0,0.25,0.203,0.453,0.453,0.453h4.709c0.25,0,0.453-0.203,0.453-0.453v-4.708
		c0-0.25-0.203-0.453-0.453-0.453H10.646z"/>
</g>
<g>
	<path d="M13,23.046C7.46,23.046,2.954,18.54,2.954,13C2.954,7.46,7.46,2.954,13,2.954S23.046,7.46,23.046,13
		C23.046,18.54,18.54,23.046,13,23.046z M13,3.954c-4.988,0-9.046,4.058-9.046,9.046S8.012,22.046,13,22.046
		s9.046-4.059,9.046-9.047S17.988,3.954,13,3.954z"/>
</g>
</svg>
