<?xml version="1.0" encoding="utf-8"?>
<!-- Generator: Adobe Illustrator 22.0.1, SVG Export Plug-In . SVG Version: 6.00 Build 0)  -->
<svg version="1.1" id="Layer_1" xmlns="http://www.w3.org/2000/svg" xmlns:xlink="http://www.w3.org/1999/xlink" x="0px" y="0px"
	 viewBox="0 0 26 26" enable-background="new 0 0 26 26" xml:space="preserve">
<g>
	<g>
		<path d="M21.25,19.906H4.75c-0.724,0-1.313-0.589-1.313-1.313V7.406c0-0.724,0.589-1.313,1.313-1.313h16.5
			c0.724,0,1.313,0.589,1.313,1.313v11.188C22.563,19.317,21.974,19.906,21.25,19.906z M4.75,7.094
			c-0.172,0-0.313,0.141-0.313,0.313v11.188c0,0.172,0.141,0.313,0.313,0.313h16.5c0.172,0,0.313-0.141,0.313-0.313V7.406
			c0-0.172-0.141-0.313-0.313-0.313H4.75z"/>
	</g>
	<g>
		<polygon points="12.888,13.918 3.965,8.35 4.494,7.502 12.892,12.742 21.8,7.25 22.325,8.102 		"/>
	</g>
</g>
</svg>
