<svg width="25" height="31" viewBox="0 0 25 31" fill="none" xmlns="http://www.w3.org/2000/svg">
<path d="M9.37398 13.8589H6.90198C6.62598 13.8589 6.40198 13.6442 6.40198 13.3796C6.40198 13.1151 6.62598 12.9004 6.90198 12.9004H9.37398C9.64998 12.9004 9.87398 13.1151 9.87398 13.3796C9.87398 13.6442 9.64998 13.8589 9.37398 13.8589Z" fill="#BCBDBE"/>
<path d="M10.864 16.2182H6.90198C6.62598 16.2182 6.40198 16.0035 6.40198 15.739C6.40198 15.4745 6.62598 15.2598 6.90198 15.2598H10.864C11.14 15.2598 11.364 15.4745 11.364 15.739C11.364 16.0035 11.141 16.2182 10.864 16.2182Z" fill="#BCBDBE"/>
<path d="M18.591 9.4387H15.285C15.284 9.4387 15.283 9.4387 15.281 9.4387C14.623 9.43391 14.091 8.9173 14.094 8.28664V5.74C14.095 5.33553 14.439 5.00581 14.86 5.00293C15.254 5.00293 15.634 5.1352 15.933 5.37481L18.705 7.61187C19.067 7.90324 19.274 8.33168 19.272 8.78599C19.271 9.14637 18.965 9.4387 18.591 9.4387ZM15.288 8.48024H18.184C18.152 8.42944 18.111 8.38438 18.062 8.34508L15.29 6.10901C15.231 6.06205 15.165 6.02562 15.094 6.0007V8.2895C15.094 8.39493 15.181 8.47833 15.288 8.48024Z" fill="#BCBDBE"/>
<path d="M6.00301 24.1184C4.89501 24.1107 3.998 23.2443 4 22.1852V6.93321C3.999 5.87507 4.896 5.00767 6 5H12.155C12.431 5 12.655 5.21469 12.655 5.47923V9.11084C12.653 9.96962 13.378 10.6703 14.273 10.6741H18.776C19.052 10.6741 19.276 10.8888 19.276 11.1533C19.276 11.4179 19.052 11.6326 18.776 11.6326H14.271C12.823 11.6268 11.65 10.4948 11.655 9.10987V5.95846H6.004C5.452 5.96229 5.00101 6.39934 5.00101 6.93225V22.1861C5.00001 22.72 5.45201 23.1561 6.00701 23.1599H17.273C17.825 23.1561 18.277 22.72 18.276 22.1871V14.5932C18.276 14.3287 18.5 14.114 18.776 14.114C19.052 14.114 19.276 14.3287 19.276 14.5932V22.1861C19.278 23.2443 18.381 24.1107 17.276 24.1184H6.00301V24.1184Z" fill="#BCBDBE"/>
<path d="M12.918 19.5261C12.793 19.5261 12.669 19.481 12.575 19.3957C12.442 19.275 12.388 19.0957 12.434 18.9261L13.027 16.7494C13.048 16.6727 13.088 16.6037 13.143 16.5453L20.351 9.04724C20.441 8.95331 20.566 8.89867 20.699 8.89292C20.828 8.88813 20.961 8.93413 21.058 9.02039L22.728 10.5041C22.931 10.6843 22.942 10.9881 22.755 11.1817L15.506 18.6778C15.448 18.7382 15.375 18.7823 15.294 18.8082L13.071 19.5031C13.022 19.5184 12.969 19.5261 12.918 19.5261ZM13.963 17.1079L13.633 18.3203L14.862 17.936L21.682 10.8827L20.746 10.0526L13.963 17.1079Z" fill="#D4D5D6"/>
<path d="M17.7731 28.0721C17.6351 28.0721 17.4971 28.0166 17.3981 27.9092C17.2151 27.7108 17.235 27.4089 17.442 27.2335C19.199 25.7498 21.6401 23.2674 21.5661 22.3942C21.5261 21.9188 21.323 21.7348 21.173 21.638C20.149 20.97 17.222 21.822 14.869 22.5064C13.636 22.8658 12.471 23.2051 11.47 23.3881C11.078 23.4591 9.88804 23.6767 9.47404 22.931C8.88904 21.8757 10.808 19.8495 11.662 19.0281C11.857 18.8412 12.173 18.8412 12.369 19.0262C12.565 19.2121 12.566 19.516 12.371 19.7038C11.215 20.8195 10.2581 22.1431 10.3591 22.4853C10.3701 22.4767 10.438 22.515 10.645 22.515C10.787 22.515 10.992 22.4987 11.283 22.446C12.232 22.2715 13.373 21.9409 14.58 21.5882C17.401 20.7677 20.318 19.9185 21.737 20.8444C22.23 21.1655 22.5081 21.661 22.5641 22.3147C22.7051 23.9776 18.874 27.3015 18.104 27.9514C18.008 28.0328 17.8911 28.0721 17.7731 28.0721ZM10.36 22.4882H10.3701H10.36Z" fill="#19A3FF"/>
</svg>
