<?xml version="1.0" encoding="utf-8"?>
<!-- Generator: Adobe Illustrator 22.0.1, SVG Export Plug-In . SVG Version: 6.00 Build 0)  -->
<svg version="1.1" id="Layer_1" xmlns="http://www.w3.org/2000/svg" xmlns:xlink="http://www.w3.org/1999/xlink" x="0px" y="0px"
	 viewBox="0 0 330 189.313" enable-background="new 0 0 330 189.313" xml:space="preserve">
<g>
	<g id="Crash-18_1_" transform="translate(4.28 0)">
		
			<line id="Line_1143_1_" fill="none" stroke="#FF2D39" stroke-linecap="round" stroke-linejoin="round" x1="149.692" y1="146.582" x2="149.927" y2="166.686"/>
		<path id="Path_82501_1_" fill="none" stroke="#FF2D39" stroke-linecap="round" d="M159.392,145.533v8.531"/>
		
			<line id="Line_1145_1_" fill="none" stroke="#FF2D39" stroke-linecap="round" stroke-linejoin="round" x1="164.856" y1="155.684" x2="164.802" y2="176.421"/>
		
			<line id="Line_1146_1_" fill="none" stroke="#909295" stroke-linecap="round" stroke-linejoin="round" x1="102.482" y1="155.413" x2="89.055" y2="175.77"/>
		<path id="Path_80823_1_" fill="none" stroke="#909295" stroke-linecap="round" stroke-linejoin="round" d="M84.024,175.77
			l17.589-27.288h6.062"/>
		
			<line id="Line_1147_1_" fill="none" stroke="#909295" stroke-linecap="round" stroke-linejoin="round" x1="101.468" y1="156.716" x2="96.419" y2="156.716"/>
		
			<line id="Line_1148_1_" fill="none" stroke="#909295" stroke-linecap="round" stroke-linejoin="round" x1="95.406" y1="166.234" x2="90.357" y2="166.234"/>
		<path id="Path_80824_1_" fill="none" stroke="#909295" stroke-linecap="round" stroke-linejoin="round" d="M120.504,118.156
			c0,0,2.153-1.81,1.538-3.058c-0.633-1.249-2.045-3.565-2.045-3.565s-3.293-0.018-3.927,2.479c-0.308,1.212,2.515,4.4,2.515,4.4"/>
		<path id="Path_80825_1_" fill="none" stroke="#909295" stroke-linecap="round" stroke-linejoin="round" d="M118.441,118.191
			c0.688,1.031-1.393,3.112-1.393,3.112l0.688,11.092l-2.769,13.518l2.769,0.344l2.081-10.4v10.4l2.027,0.127l0.4-5.682l1.737-6.587
			l-0.688-7.98l-0.235-1.375l5.266-0.507l4.252-3.909c0,0,0.163-1.194-0.85-1.357l-4.6,3.239h-3.559c0,0-0.85,0.163-0.85-0.344
			s3.746-2.045,3.746-2.045l3.058-3.565l0.688-1.357c-0.397-0.438-1.058-0.508-1.538-0.163l-3.4,3.239l-3.565,1.357l-1.013-1.194"/>
		
			<rect id="Rectangle_23497_1_" x="102.21" y="148.482" fill="none" stroke="#909295" stroke-linecap="round" stroke-linejoin="round" width="34.164" height="6.261"/>
		
			<line id="Line_1149_1_" fill="none" stroke="#909295" stroke-linecap="round" stroke-linejoin="round" x1="136.374" y1="154.762" x2="136.374" y2="176.078"/>
		
			<line id="Line_1150_1_" fill="none" stroke="#909295" stroke-linecap="round" stroke-linejoin="round" x1="102.156" y1="155.069" x2="102.156" y2="176.385"/>
		<path id="Path_80826_1_" fill="none" stroke="#909295" stroke-linecap="round" stroke-linejoin="round" d="M117.79,146.221
			l1.411,1.013v0.633h-4.65v-1.882l0.507-0.109"/>
		<path id="Path_80827_1_" fill="none" stroke="#909295" stroke-miterlimit="10" d="M119.889,146.275v1.737h4.777v-0.688
			l-2.714-0.851L119.889,146.275z"/>
		<path id="Path_80828_1_" fill="none" stroke="#909295" stroke-linecap="round" stroke-linejoin="round" d="M123.906,132.956
			c-2.072,0.057-4.138-0.23-6.116-0.85"/>
		
			<line id="Line_1151_1_" fill="none" stroke="#909295" stroke-linecap="round" stroke-linejoin="round" x1="129.353" y1="114.408" x2="128.503" y2="109.993"/>
		<path id="Path_80829_1_" fill="#909295" stroke="#909295" stroke-width="0.5" d="M129.154,109.016l-1.828,0.416
			c-0.104,0.023-0.169,0.127-0.146,0.231c0,0.001,0.001,0.003,0.001,0.004l0.09,0.47c0.015,0.099,0.107,0.167,0.206,0.152
			c0.01-0.001,0.019-0.004,0.029-0.007l1.665-0.253c0.109-0.018,0.344-0.127,0.308-0.235l-0.09-0.633
			C129.359,109.061,129.258,108.998,129.154,109.016z"/>
		<path id="Path_80830_1_" fill="none" stroke="#909295" stroke-linecap="round" stroke-linejoin="round" d="M131.307,87.627
			c0,0-25.008,5.266-26.2,23.814s40.66,39.81,6.46,58.684"/>
		<path id="Path_80831_1_" fill="none" stroke="#909295" stroke-linecap="round" stroke-linejoin="round" d="M136.754,84.551
			l-5.447,1.538l0.67,2.551l5.628-1.7L136.754,84.551z"/>
		
			<line id="Line_1152_1_" fill="none" stroke="#909295" stroke-linecap="round" stroke-linejoin="round" x1="202.169" y1="123.131" x2="181.993" y2="123.131"/>
		
			<line id="Line_1153_1_" fill="none" stroke="#909295" stroke-linecap="round" stroke-linejoin="round" x1="195.655" y1="123.311" x2="195.655" y2="176.561"/>
		
			<line id="Line_1154_1_" fill="none" stroke="#909295" stroke-linecap="round" stroke-linejoin="round" x1="196.324" y1="123.854" x2="229.3" y2="176.561"/>
		<path id="Path_80832_1_" fill="none" stroke="#909295" stroke-linecap="round" stroke-linejoin="round" d="M237.129,175.974
			l-39.845-60.262l-20.629-0.181"/>
		
			<line id="Line_1155_1_" fill="none" stroke="#909295" stroke-linecap="round" stroke-linejoin="round" x1="196.324" y1="123.384" x2="202.35" y2="123.384"/>
		
			<line id="Line_1156_1_" fill="none" stroke="#909295" stroke-linecap="round" stroke-linejoin="round" x1="202.929" y1="133.735" x2="208.864" y2="133.735"/>
		
			<line id="Line_1157_1_" fill="none" stroke="#909295" stroke-linecap="round" stroke-linejoin="round" x1="209.498" y1="144.176" x2="215.741" y2="144.176"/>
		
			<line id="Line_1158_1_" fill="none" stroke="#909295" stroke-linecap="round" stroke-linejoin="round" x1="221.712" y1="163.483" x2="228.588" y2="163.483"/>
		
			<line id="Line_1159_1_" fill="none" stroke="#909295" stroke-linecap="round" stroke-linejoin="round" x1="215.56" y1="153.35" x2="221.893" y2="153.35"/>
		<path id="Path_80833_1_" fill="none" stroke="#909295" stroke-linecap="round" stroke-linejoin="round" d="M194.714,88.442
			c0.105,0.175,0.161,0.375,0.163,0.579c-0.004,0.381-0.104,0.754-0.29,1.086c-0.583,1.08-0.841,2.306-0.742,3.529
			c0.209,1.316,0.27,2.651,0.181,3.981c-0.181,0.362,1.81,3.981,1.629,7.781c-0.181,3.655,1.086,4.886,0.724,7.419"/>
		<path id="Path_80834_1_" fill="none" stroke="#909295" stroke-linecap="round" stroke-linejoin="round" d="M194.027,112.816h2.714
			c0.098-0.002,0.179,0.075,0.181,0.173c0,0.003,0,0.005,0,0.008v1.629h-4.7v-0.416c-0.001-0.194,0.103-0.373,0.271-0.47
			l1.538-0.923c0,0-0.543-3.076-0.724-4.886s-1.267-6.876-1.991-7.419s-0.362,4.886-0.362,4.886s0.181,2.533,0.181,3.8
			c0.072,1.23,0.242,2.452,0.507,3.655"/>
		<path id="Path_80835_1_" fill="none" stroke="#909295" stroke-miterlimit="10" d="M191.854,113.071v1.3c0,0.11-0.09,0.2-0.2,0.2
			l0,0h-4.377c-0.11,0-0.2-0.09-0.2-0.2v0v-0.326c0-0.091,0.059-0.171,0.145-0.2l2.551-0.8h0.036l1.828-0.181
			c0.106-0.013,0.203,0.063,0.216,0.169C191.855,113.045,191.855,113.058,191.854,113.071z"/>
		<path id="Path_80836_1_" fill="none" stroke="#909295" stroke-linecap="round" stroke-linejoin="round" d="M187.693,97.436
			c2.046,0.688,4.251,0.751,6.333,0.181"/>
		
			<line id="Line_1160_1_" fill="none" stroke="#909295" stroke-linecap="round" stroke-linejoin="round" x1="176.164" y1="96.204" x2="187.313" y2="96.204"/>
		
			<line id="Line_1161_1_" fill="none" stroke="#909295" stroke-linecap="round" stroke-linejoin="round" x1="188.146" y1="93.997" x2="176.164" y2="93.997"/>
		<path id="Path_80837_1_" fill="none" stroke="#909295" stroke-linecap="round" stroke-linejoin="round" d="M178.808,92.044
			c-0.777,0.094-1.361,0.755-1.357,1.538"/>
		<g id="Group_31985_1_" transform="translate(92.076 23.114)">
			
				<ellipse id="Ellipse_3753_1_" transform="matrix(0.5655 -0.8247 0.8247 0.5655 -12.2062 96.0572)" fill="none" stroke="#909295" stroke-width="0.5" stroke-miterlimit="10" cx="85.066" cy="59.614" rx="1.104" ry="0.507"/>
			<path id="Path_80838_1_" fill="none" stroke="#909295" stroke-width="0.5" stroke-miterlimit="10" d="M84.543,60.551l1.448,0.109
				l2.57,1.665c0.132-0.065,0.25-0.158,0.344-0.271c0.101-0.147,0.063-0.347-0.083-0.448c-0.002-0.001-0.004-0.003-0.007-0.004
				l-2.37-1.52l-0.708-1.323"/>
		</g>
		<path id="Path_80839_1_" opacity="0.35" fill="#FF2D39" enable-background="new    " d="M177.735,81.692l-4.162-11.82
			c-0.747-1.776-1.593-3.508-2.533-5.189c-2.884-4.92-7.781-8.143-13.21-5.429l7.158,7.227l8.585,17.947l2.9-0.746
			C176.354,82.801,176.887,81.961,177.735,81.692z"/>
		<path id="Path_80840_1_" fill="none" stroke="#909295" stroke-linecap="round" stroke-linejoin="round" d="M188.236,91.102
			c0.636,1.187,0.636,2.613,0,3.8c-0.596,1.23-0.835,2.604-0.688,3.963c-0.006,0.793,0.042,1.585,0.145,2.371l0.9,4.162
			c0,0,0.181,1.99,0.362,3.619s0.724,4.035,0.724,4.035"/>
		<path id="Path_80841_1_" fill="none" stroke="#909295" stroke-linecap="round" stroke-linejoin="round" d="M189.014,79.937
			c-0.004,1.277,0.504,2.501,1.411,3.4c1.466,1.267,1.629,0.9,1.81,2.352s2.352,2.714,2.352,2.714s3.981,1.086,4.343-2.171
			s-3.8-1.448-4.343-4.343c0,0,0-3.728-3.492-3.456c-0.085,0.003-0.17,0.015-0.253,0.036l-0.832,0.235
			c-0.674,0.199-1.104,0.859-1.013,1.556c0.109,0.923,0.615,2.117,0.706,2.714c0.157,0.82,0.745,1.492,1.538,1.755l0,0
			c-0.057,0.261-0.23,0.482-0.47,0.6l-0.344,0.181l-4.669,0.235c-0.203,0.012-0.406-0.012-0.6-0.072l-3.963-1.267
			c0,0-1.013-0.163-1.013,1.013l4.433,1.828c0.326,0.134,0.679,0.19,1.031,0.163c0.959-0.072,2.859-0.163,2.859,0.217l0,0
			c0.007,0.518-0.291,0.992-0.76,1.212l-3.728,2.009c-0.312,0.168-0.65,0.285-1,0.344l-3.691,0.67c-1.013,0.163-0.163,1.7-0.163,1.7
			l4.343-0.434c0.502-0.05,0.992-0.185,1.448-0.4l3.221-1.538"/>
		<path id="Path_70834_1_" fill="none" stroke="#909295" stroke-linecap="round" stroke-linejoin="round" d="M158.125,59.399
			c-0.269-0.181-0.617-0.195-0.9-0.036c-9.192,5.374-20.122,28.464-20.43,46.777c-0.07,3.251,0.141,6.502,0.633,9.717
			c-3.104,2.336-5.579,5.408-7.2,8.939c-3.981,9.717,1.683,19.579,4.415,23.524c0.539,0.779,1.608,0.974,2.387,0.435
			c0,0,0.001-0.001,0.002-0.001c0.127-0.088,0.243-0.191,0.344-0.308l9.916-11.943c0.814,0.832,1.683,1.61,2.57,2.352
			c0.61,0.523,1.386,0.811,2.19,0.814l8.451,0.145c0.805,0.012,1.59-0.249,2.226-0.742c0.923-0.706,1.791-1.466,2.642-2.262
			l9.482,12.251c0.587,0.741,1.661,0.871,2.407,0.29c0.126-0.09,0.236-0.2,0.326-0.326c2.877-3.836,8.885-13.535,5.23-23.361
			c-1.496-3.576-3.852-6.727-6.858-9.174c0.614-3.198,0.941-6.444,0.977-9.7C177.27,88.514,167.462,65.479,158.125,59.399z
			 M156.931,102.828c-2.528-0.06-4.888-1.28-6.4-3.307c-1.068-1.423-1.62-3.167-1.565-4.945c0.08-4.477,3.775-8.042,8.252-7.962
			c4.477,0.08,8.042,3.775,7.962,8.252c-0.09,4.473-3.779,8.032-8.252,7.962L156.931,102.828z"/>
	</g>
	<path id="Smog2-04_1_" opacity="0.25" fill="#909295" enable-background="new    " d="M106.571,183.588h217.231
		c0,0-2.682-22.124-29.501-10.724c0,0-18.773-26.148-46.933-4.693s-42.239,0-42.239,0s-23.466-28.163-43.58-4.697
		s-37.546,12.069-37.546,12.069S107.241,167.497,106.571,183.588z"/>
	<path id="Smog2-04-2_1_" opacity="0.25" fill="#909295" enable-background="new    " d="M29.938,183.589h93.66
		c0,0-1.16-14.792-12.72-7.172c0,0-8.094-17.481-20.235-3.138s-18.212,0-18.212,0s-10.117-18.826-18.793-3.138
		S37.45,178.21,37.45,178.21S30.227,172.826,29.938,183.589z"/>
	<path id="Smog2-04-3_1_" opacity="0.25" fill="#909295" enable-background="new    " d="M4.198,183.589h93.66
		c0,0-1.16-14.792-12.72-7.172c0,0-8.094-17.481-20.235-3.138s-18.212,0-18.212,0s-10.117-18.826-18.793-3.138
		S11.71,178.21,11.71,178.21S4.487,172.826,4.198,183.589z"/>
	<g id="Path_82656_1_" transform="translate(213.854 125.063)">
		<path fill="none" d="M-52.542-38.953c4.749-0.05,8.64,3.759,8.691,8.508c0.001,0.053,0.001,0.107,0,0.16
			c-0.073,4.761-3.93,8.594-8.691,8.636c-4.702-0.127-8.481-3.913-8.6-8.615c-0.049-4.749,3.761-8.639,8.511-8.689
			C-52.602-38.952-52.572-38.953-52.542-38.953z"/>
		<path fill="#909295" d="M-52.453-37.953c-0.027,0-0.056,0-0.083,0c-2.09,0.022-4.02,0.831-5.434,2.278
			c-1.401,1.433-2.172,3.355-2.172,5.411c0,1.991,0.819,3.885,2.305,5.332c1.439,1.401,3.38,2.234,5.325,2.283
			c0.055,0.001,0.11,0.002,0.166,0.002c1.873,0,3.77-0.826,5.204-2.266c1.475-1.481,2.287-3.389,2.287-5.373
			c0-2.044-0.778-3.964-2.19-5.408C-48.47-37.15-50.391-37.953-52.453-37.953 M-52.453-38.953c4.865,0,8.598,3.94,8.598,8.668
			c0,4.758-4.162,8.752-8.683,8.637c-4.521-0.115-8.604-3.857-8.604-8.615c0-4.758,3.686-8.639,8.596-8.689
			C-52.515-38.953-52.484-38.953-52.453-38.953z"/>
	</g>
	<path opacity="0.08" fill="#909295" enable-background="new    " d="M239.463,183.589c18.088-18.705,29.193-44.026,29.193-71.902
		c0-57.573-47.367-104.246-105.8-104.246c-58.431,0-105.8,46.672-105.8,104.246c0,27.876,11.104,53.197,29.192,71.902H239.463z"/>
	<path opacity="0.08" fill="#909295" enable-background="new    " d="M103.211,183.588h118.442
		c21.208-16.979,34.763-42.878,34.763-71.901c0-51.142-42.078-92.601-93.984-92.601c-51.906,0-93.984,41.459-93.984,92.601
		C68.448,140.71,82.003,166.61,103.211,183.588z"/>
	<rect x="84.024" y="176.557" fill="none" stroke="#909295" width="56.619" height="7.031"/>
	<rect x="190.296" y="176.557" fill="none" stroke="#909295" width="56.619" height="7.314"/>
</g>
</svg>
