<?xml version="1.0" encoding="utf-8"?>
<!-- Generator: Adobe Illustrator 22.0.1, SVG Export Plug-In . SVG Version: 6.00 Build 0)  -->
<svg version="1.1" id="Layer_1" xmlns="http://www.w3.org/2000/svg" xmlns:xlink="http://www.w3.org/1999/xlink" x="0px" y="0px"
	 viewBox="0 0 26 26" enable-background="new 0 0 26 26" xml:space="preserve">
<g id="Group_34833_3_" transform="translate(62 266.368)">
	<g id="Path_74493_3_">
		<path d="M-49-247.5c-3.3,0-6.6-2-8.7-5.3c-0.2-0.4-0.2-0.9,0-1.2c2.4-3.4,5.5-5.3,8.7-5.3c3.3,0,6.6,2,8.8,5.3
			c0.2,0.4,0.2,0.8,0,1.2C-42.4-249.4-45.7-247.5-49-247.5z M-49-258.3c-2.9,0-5.7,1.7-7.9,4.9c0,0,0,0.1,0,0.1
			c1.9,3,4.9,4.8,7.9,4.8c3,0,6-1.8,7.9-4.9c0,0,0-0.1,0-0.1C-43.1-256.5-46-258.3-49-258.3z"/>
	</g>
	<g id="Ellipse_1609_3_">
		<path d="M-49-249.9c-2,0-3.6-1.6-3.6-3.6s1.6-3.6,3.6-3.6c2,0,3.6,1.6,3.6,3.6S-47-249.9-49-249.9z M-49-256.1
			c-1.4,0-2.6,1.2-2.6,2.6c0,1.4,1.2,2.6,2.6,2.6s2.6-1.2,2.6-2.6C-46.4-254.9-47.6-256.1-49-256.1z"/>
	</g>
</g>
</svg>
