<?xml version="1.0" encoding="utf-8"?>
<!-- Generator: Adobe Illustrator 22.0.1, SVG Export Plug-In . SVG Version: 6.00 Build 0)  -->
<svg version="1.1" id="Layer_1" xmlns="http://www.w3.org/2000/svg" xmlns:xlink="http://www.w3.org/1999/xlink" x="0px" y="0px"
	 viewBox="0 0 26 26" enable-background="new 0 0 26 26" xml:space="preserve">
<g>
	<g id="Group_34833_4_" transform="translate(62 266.368)">
		<g id="Path_74493_5_">
			<path d="M-43.1-249.6l-0.7-0.7c1-0.8,2-1.9,2.7-3c0,0,0-0.1,0-0.1c-2.5-3.8-6.6-5.6-10.3-4.5l-0.7-0.7c4.4-1.5,9.1,0.5,11.8,4.7
				c0.2,0.4,0.2,0.8,0,1.2C-41-251.6-42.1-250.4-43.1-249.6z"/>
		</g>
		<g id="Path_74493_1_">
			<path d="M-49-247.5c-3.3,0-6.6-2-8.7-5.3c-0.2-0.4-0.2-0.9,0-1.2c0.8-1.2,1.9-2.4,2.9-3.2l0.7,0.7c-0.9,0.8-2,1.9-2.8,3
				c0,0,0,0.1,0,0.1c2.5,3.8,6.6,5.6,10.3,4.4l0.8,0.8C-46.6-247.6-48.1-247.5-49-247.5z"/>
		</g>
		<g id="Ellipse_1609_5_">
			<path d="M-45.7-252.2l-0.8-0.8c0-0.1,0-0.1,0-0.5c0-1.4-1.2-2.6-2.6-2.6c-0.4,0-0.5,0-0.5,0l-0.8-0.8c0.5-0.2,0.7-0.2,1.3-0.2
				c2,0,3.6,1.6,3.6,3.6C-45.4-252.9-45.5-252.7-45.7-252.2z"/>
		</g>
		<g id="Ellipse_1609_1_">
			<path d="M-49-249.9c-2,0-3.7-1.6-3.6-3.6c0-0.5,0-0.8,0.3-1.3l0.8,0.8c0,0.1,0,0.1,0,0.5c0,1.4,1.2,2.6,2.6,2.6
				c0.4,0,0.3,0,0.4,0l0.8,0.8C-48.2-249.9-48.5-249.9-49-249.9z"/>
		</g>
	</g>
	<g>
		<path d="M19.5,20c-0.1,0-0.3,0-0.4-0.1L6.1,6.9C6,6.7,6,6.4,6.1,6.2C6.3,6,6.7,6,6.9,6.2l13,12.9c0.2,0.2,0.2,0.5,0,0.7
			C19.8,19.9,19.6,20,19.5,20z"/>
	</g>
</g>
</svg>
