<?xml version="1.0" encoding="utf-8"?>
<!-- Generator: Adobe Illustrator 22.0.1, SVG Export Plug-In . SVG Version: 6.00 Build 0)  -->
<svg version="1.1" id="Layer_1" xmlns="http://www.w3.org/2000/svg" xmlns:xlink="http://www.w3.org/1999/xlink" x="0px" y="0px"
	 viewBox="0 0 26 26" enable-background="new 0 0 26 26" xml:space="preserve">
<g id="Group_34884_3_" transform="translate(-1.664 275.147)">
	<g id="Light-362_3_">
		<path d="M11.975-252.019c-0.024,0-0.049-0.001-0.074-0.004c-0.2-0.019-0.381-0.116-0.509-0.272
			c-0.128-0.156-0.188-0.354-0.168-0.555l1.237-8.419l-3.976,0.005l-0.101-0.004c-0.414-0.062-0.695-0.438-0.637-0.842l2.194-9.613
			c0.024-0.188,0.132-0.358,0.294-0.458c0.167-0.102,0.37-0.122,0.571-0.057l7.539,0.004c0.414,0.062,0.695,0.438,0.637,0.842
			l-1.57,6.566l3.457-0.001c0.253,0,0.481,0.125,0.61,0.336c0.138,0.223,0.145,0.505,0.019,0.755l-8.926,11.426
			C12.431-252.126,12.207-252.019,11.975-252.019z M11.785-252.925c0,0-0.001,0.001-0.001,0.001L11.785-252.925z M12.79-262.27
			c0.121,0,0.279,0.051,0.413,0.15c0.16,0.119,0.263,0.292,0.291,0.489l0.011,0.071l-0.011,0.142l-1.141,7.767l7.961-10.176h-3.198
			c-0.432-0.027-0.749-0.349-0.77-0.747l-0.003-0.072l1.579-6.597l-7.064,0.005l-2.051,8.979l3.918-0.005
			C12.744-262.268,12.766-262.27,12.79-262.27z M12.723-261.269c0.023,0.002,0.049,0.002,0.074,0H12.723z"/>
	</g>
</g>
</svg>
