<?xml version="1.0" encoding="utf-8"?>
<!-- Generator: Adobe Illustrator 22.0.1, SVG Export Plug-In . SVG Version: 6.00 Build 0)  -->
<svg version="1.1" id="Layer_1" xmlns="http://www.w3.org/2000/svg" xmlns:xlink="http://www.w3.org/1999/xlink" x="0px" y="0px"
	 viewBox="0 0 26 26" enable-background="new 0 0 26 26" xml:space="preserve">
<g id="Light_Off-363_3_" transform="translate(58.773 950.575)">
	<g id="Path_82129_3_">
		<path d="M-41.551-936.285c-0.102,0-0.204-0.031-0.293-0.095c-0.224-0.162-0.273-0.475-0.111-0.698l1.598-2.208h-3.161
			c-0.428-0.02-0.749-0.339-0.77-0.744c-0.002-0.048,0.002-0.096,0.013-0.142l1.542-6.425l-6.925,0.005l-0.313,1.497
			c-0.057,0.271-0.322,0.447-0.592,0.387c-0.27-0.057-0.443-0.321-0.387-0.592l0.359-1.714c0.02-0.095,0.066-0.182,0.135-0.25
			c0.13-0.131,0.326-0.328,0.625-0.328h7.397c0.021,0,0.111,0.001,0.132,0.004c0.409,0.059,0.69,0.434,0.633,0.837l-1.549,6.466
			l3.398-0.001c0.251,0,0.479,0.125,0.608,0.334c0.137,0.221,0.145,0.502,0.02,0.751l-1.954,2.709
			C-41.244-936.356-41.396-936.285-41.551-936.285z"/>
	</g>
	<g id="Path_82130_3_">
		<path d="M-48.499-927.556c-0.023,0-0.046-0.001-0.069-0.003c-0.204-0.021-0.385-0.116-0.512-0.272
			c-0.128-0.155-0.187-0.351-0.167-0.551l1.222-8.293l-3.88,0.005c-0.029,0-0.125-0.003-0.153-0.008
			c-0.181-0.025-0.354-0.128-0.473-0.286s-0.168-0.353-0.139-0.548l0.545-2.652c0.056-0.271,0.316-0.453,0.591-0.389
			c0.27,0.056,0.444,0.319,0.389,0.59l-0.473,2.298l3.862-0.005c0.122-0.026,0.319,0.027,0.478,0.146
			c0.158,0.119,0.26,0.292,0.288,0.487c0.007,0.049,0.006,0.165-0.001,0.213l-1.124,7.623l3.17-4.075
			c0.17-0.218,0.484-0.258,0.702-0.088c0.218,0.169,0.257,0.483,0.087,0.701l-3.747,4.817
			C-48.053-927.66-48.27-927.556-48.499-927.556z M-47.76-936.676c0.024,0.004,0.049,0.004,0.072,0H-47.76z"/>
	</g>
	<g id="Line_1298_6_">
		<path d="M-36.303-927.56c-0.128,0-0.256-0.049-0.354-0.146l-18.941-18.94c-0.195-0.195-0.195-0.512,0-0.707s0.512-0.195,0.707,0
			l18.941,18.94c0.195,0.195,0.195,0.512,0,0.707C-36.047-927.609-36.175-927.56-36.303-927.56z"/>
	</g>
</g>
</svg>
