<?xml version="1.0" encoding="utf-8"?>
<!-- Generator: Adobe Illustrator 22.0.1, SVG Export Plug-In . SVG Version: 6.00 Build 0)  -->
<svg version="1.1" id="Layer_1" xmlns="http://www.w3.org/2000/svg" xmlns:xlink="http://www.w3.org/1999/xlink" x="0px" y="0px"
	 viewBox="0 0 26 26" enable-background="new 0 0 26 26" xml:space="preserve">
<g id="Group_34881_2_" transform="translate(8809.771 14118.88)">
	<g id="Group_34688_2_" transform="translate(-8754.074 -13095.979)">
		<g id="images-outline_6_" transform="translate(0 0)">
			<g id="Path_70395_6_">
				<path d="M-49.719-1003.681h-0.639c-1.315-0.004-2.387-1.075-2.39-2.389v-10.215c0.003-1.315,1.075-2.387,2.389-2.391h12.77
					c1.315,0.004,2.387,1.076,2.39,2.39v0.639h-0.95v-0.638c-0.002-0.792-0.649-1.439-1.442-1.441h-12.767
					c-0.792,0.002-1.438,0.649-1.44,1.442v10.213c0.002,0.791,0.649,1.438,1.442,1.44h0.637V-1003.681z"/>
			</g>
			<g id="Ellipse_645_6_">
				<path d="M-38.032-1009.658c-0.939,0-1.702-0.76-1.702-1.694s0.764-1.694,1.702-1.694s1.702,0.76,1.702,1.694
					S-37.093-1009.658-38.032-1009.658z M-38.032-1012.097c-0.415,0-0.753,0.334-0.753,0.745c0,0.41,0.338,0.744,0.753,0.744
					s0.753-0.334,0.753-0.744C-37.279-1011.763-37.617-1012.097-38.032-1012.097z"/>
			</g>
			<g id="Path_70396_6_">
				<path d="M-42.329-1001.127c-0.122,0-0.244-0.046-0.337-0.14c-0.185-0.186-0.184-0.487,0.002-0.671l3.041-3.02l-3.448-3.418
					c-0.282-0.279-0.737-0.292-1.035-0.03l-4.66,4.113c-0.196,0.174-0.496,0.154-0.671-0.042c-0.173-0.197-0.155-0.497,0.042-0.671
					l4.661-4.113c0.672-0.59,1.695-0.561,2.331,0.067l3.455,3.424l1.016-1.009c0.627-0.619,1.612-0.665,2.291-0.105l2.823,2.334
					c0.202,0.168,0.23,0.466,0.063,0.669c-0.167,0.202-0.467,0.231-0.669,0.064l-2.822-2.335c-0.301-0.247-0.739-0.227-1.017,0.047
					l-4.73,4.697C-42.086-1001.173-42.207-1001.127-42.329-1001.127z"/>
			</g>
			<g id="Rectangle_7943_6_">
				<path d="M-34.793-1001.127h-12.677c-1.177,0-2.135-0.958-2.135-2.135v-10.107c0-1.177,0.958-2.135,2.135-2.135h12.677
					c1.177,0,2.135,0.958,2.135,2.135v10.107C-32.658-1002.085-33.616-1001.127-34.793-1001.127z M-47.471-1014.554
					c-0.653,0-1.185,0.531-1.185,1.185v10.107c0,0.654,0.531,1.185,1.185,1.185h12.677c0.653,0,1.185-0.531,1.185-1.185v-10.107
					c0-0.654-0.532-1.185-1.185-1.185H-47.471z"/>
			</g>
		</g>
	</g>
</g>
</svg>
