<?xml version="1.0" encoding="utf-8"?>
<!-- Generator: Adobe Illustrator 22.0.1, SVG Export Plug-In . SVG Version: 6.00 Build 0)  -->
<svg version="1.1" id="Layer_1" xmlns="http://www.w3.org/2000/svg" xmlns:xlink="http://www.w3.org/1999/xlink" x="0px" y="0px"
	 viewBox="0 0 26 26" enable-background="new 0 0 26 26" xml:space="preserve">
<g id="Path_82338_2_">
	<path d="M18.819,20.985H7.178c-1.193,0-2.164-0.971-2.164-2.163V7.178c0-1.193,0.971-2.164,2.164-2.164h4.158
		c0.276,0,0.5,0.224,0.5,0.5s-0.224,0.5-0.5,0.5H7.178c-0.642,0-1.164,0.522-1.164,1.164v11.645c0,0.642,0.522,1.163,1.164,1.163
		h11.641c0.642,0,1.164-0.521,1.164-1.163v-4.159c0-0.276,0.224-0.5,0.5-0.5s0.5,0.224,0.5,0.5v4.159
		C20.983,20.015,20.013,20.985,18.819,20.985z M14.247,12.252c-0.128,0-0.256-0.049-0.354-0.146c-0.195-0.195-0.195-0.512,0-0.707
		l5.385-5.385h-2.954c-0.276,0-0.5-0.224-0.5-0.5s0.224-0.5,0.5-0.5h4.159c0,0,0.001,0,0.001,0c0,0,0.001,0,0.001,0
		c0.128,0,0.256,0.049,0.354,0.146c0.11,0.11,0.158,0.259,0.144,0.403v4.109c0,0.276-0.224,0.5-0.5,0.5s-0.5-0.224-0.5-0.5V6.724
		l-5.383,5.382C14.503,12.203,14.375,12.252,14.247,12.252z"/>
</g>
</svg>
