<?xml version="1.0" encoding="utf-8"?>
<!-- Generator: Adobe Illustrator 22.0.1, SVG Export Plug-In . SVG Version: 6.00 Build 0)  -->
<svg version="1.1" id="Layer_1" xmlns="http://www.w3.org/2000/svg" xmlns:xlink="http://www.w3.org/1999/xlink" x="0px" y="0px"
	 viewBox="0 0 26 26" enable-background="new 0 0 26 26" xml:space="preserve">
<g>
	<path fill="#32F62B" d="M13,18.672c-3.127,0-5.672-2.544-5.672-5.672S9.873,7.328,13,7.328S18.672,9.872,18.672,13
		S16.128,18.672,13,18.672z"/>
	<g id="Ellipse_4147_3_" transform="translate(31 292)">
		<g>
			<path fill="#FEFEFF" d="M-18-270.742c-4.554,0-8.258-3.704-8.258-8.258s3.705-8.258,8.258-8.258c4.553,0,8.258,3.704,8.258,8.258
				S-13.447-270.742-18-270.742z M-18-286.258c-4.002,0-7.258,3.256-7.258,7.258s3.256,7.258,7.258,7.258
				c4.002,0,7.258-3.256,7.258-7.258S-13.998-286.258-18-286.258z"/>
		</g>
	</g>
</g>
</svg>
