<?xml version="1.0" encoding="utf-8"?>
<!-- Generator: Adobe Illustrator 22.0.1, SVG Export Plug-In . SVG Version: 6.00 Build 0)  -->
<svg version="1.1" id="Layer_1" xmlns="http://www.w3.org/2000/svg" xmlns:xlink="http://www.w3.org/1999/xlink" x="0px" y="0px"
	 viewBox="0 0 26 26" enable-background="new 0 0 26 26" xml:space="preserve">
<g>
	<g id="Path_60832_3_">
		<path d="M13.019,8.978c1.568,0,2.646,0.869,2.646,2.119c0.002,0.794-0.456,1.518-1.175,1.856
			c-0.727,0.422-0.974,0.731-0.974,1.266v0.327h-1.45l-0.012-0.36c-0.116-0.764,0.286-1.513,0.986-1.839
			c0.706-0.422,1.003-0.69,1.003-1.208c-0.061-0.557-0.561-0.96-1.118-0.899c-0.002,0-0.004,0-0.006,0.001
			c-0.583-0.035-1.084,0.409-1.119,0.993c-0.001,0.012-0.001,0.024-0.002,0.036h-1.484C10.344,9.927,11.338,8.978,13.019,8.978z
			 M11.919,16.143c-0.023-0.495,0.361-0.915,0.856-0.938c0.495-0.023,0.915,0.361,0.938,0.856c0.023,0.495-0.361,0.915-0.856,0.938
			C12.842,16.999,12.828,17,12.814,17C12.33,17.01,11.93,16.627,11.919,16.143C11.919,16.143,11.919,16.143,11.919,16.143z"/>
	</g>
	<g>
		<path d="M13,23.602C7.154,23.602,2.398,18.846,2.398,13S7.154,2.399,13,2.399S23.602,7.154,23.602,13S18.846,23.602,13,23.602z
			 M13,3.399c-5.294,0-9.602,4.308-9.602,9.602S7.706,22.602,13,22.602s9.602-4.308,9.602-9.602S18.294,3.399,13,3.399z"/>
	</g>
</g>
</svg>
