<?xml version="1.0" encoding="utf-8"?>
<!-- Generator: Adobe Illustrator 22.0.1, SVG Export Plug-In . SVG Version: 6.00 Build 0)  -->
<svg version="1.1" id="Layer_1" xmlns="http://www.w3.org/2000/svg" xmlns:xlink="http://www.w3.org/1999/xlink" x="0px" y="0px"
	 viewBox="0 0 26 26" enable-background="new 0 0 26 26" xml:space="preserve">
<g id="home-outline_2_" transform="translate(56.111 654.214)">
	<g id="Path_67793_2_">
		<path d="M-35.96-631.411h-4.293c-0.276,0-0.5-0.224-0.5-0.5v-6.081c0-0.316-0.257-0.573-0.573-0.573H-44.9
			c-0.316,0-0.573,0.257-0.573,0.573v6.081c0,0.276-0.224,0.5-0.5,0.5h-4.292c-0.67,0-1.216-0.546-1.216-1.216v-10.553
			c0-0.276,0.224-0.5,0.5-0.5s0.5,0.224,0.5,0.5v10.553c0,0.119,0.097,0.216,0.216,0.216h3.792v-5.581
			c0-0.867,0.706-1.573,1.573-1.573h3.574c0.868,0,1.573,0.706,1.573,1.573v5.581h3.793c0.119,0,0.215-0.097,0.215-0.216v-10.553
			c0-0.276,0.224-0.5,0.5-0.5s0.5,0.224,0.5,0.5v10.553C-34.744-631.956-35.29-631.411-35.96-631.411z"/>
	</g>
	<g id="Path_67794_2_">
		<path d="M-33.094-640.715c-0.125,0-0.249-0.046-0.346-0.139l-9.529-9.123c-0.073-0.062-0.211-0.06-0.304,0.02l-9.51,9.104
			c-0.199,0.19-0.516,0.185-0.707-0.016c-0.191-0.199-0.184-0.516,0.016-0.707l9.532-9.123c0.493-0.419,1.174-0.418,1.643-0.02
			l2.979,2.852v-1.928c0-0.276,0.224-0.5,0.5-0.5h2.146c0.276,0,0.5,0.224,0.5,0.5v4.939l3.426,3.279
			c0.2,0.191,0.207,0.508,0.016,0.707C-32.831-640.767-32.963-640.715-33.094-640.715z M-38.32-646.911l1.146,1.098v-3.482h-1.146
			V-646.911z"/>
	</g>
</g>
</svg>
