<?xml version="1.0" encoding="utf-8"?>
<!-- Generator: Adobe Illustrator 27.1.0, SVG Export Plug-In . SVG Version: 6.00 Build 0)  -->
<svg version="1.1" id="Guides" xmlns="http://www.w3.org/2000/svg" xmlns:xlink="http://www.w3.org/1999/xlink" x="0px" y="0px"
	 viewBox="0 0 48 48" enable-background="new 0 0 48 48" xml:space="preserve">
<g id="images-outline_00000142856343231032255880000008981231436035116935_" transform="translate(611.5 841.51)">
	<g id="Path_70395_00000163752106776328642370000016153290966709571001_">
		<path d="M-603.1-804h-1.4c-2.8,0-5-2.3-5-5v-22.8c0-2.8,2.3-5,5-5h28.4c2.8,0,5,2.3,5,5v1.4h-1.5v-1.4c0-1.9-1.6-3.5-3.5-3.5
			h-28.4c-1.9,0-3.5,1.6-3.5,3.5v22.8c0,1.9,1.6,3.5,3.5,3.5h1.4V-804z"/>
	</g>
	<g id="Ellipse_645_00000129167273231168584520000008160354275336037273_">
		<path d="M-577.1-817.3c-1.9,0-3.5-1.6-3.5-3.5s1.6-3.5,3.5-3.5c1.9,0,3.5,1.6,3.5,3.5S-575.2-817.3-577.1-817.3z M-577.1-822.7
			c-1.1,0-2,0.9-2,2s0.9,2,2,2c1.1,0,2-0.9,2-2S-576-822.7-577.1-822.7z"/>
	</g>
	<g id="Path_70396_00000057119913893676105250000006626572559650313861_">
		<path d="M-586.7-798.3c-0.2,0-0.4-0.1-0.5-0.2c-0.3-0.3-0.3-0.8,0-1.1l7-7c-0.1,0-0.1-0.1-0.2-0.1l-7.7-7.7
			c-0.7-0.7-1.9-0.8-2.7-0.1l-10.4,9.2c-0.3,0.3-0.8,0.2-1.1-0.1c-0.3-0.3-0.2-0.8,0.1-1.1l10.4-9.2c1.4-1.2,3.5-1.2,4.8,0.1
			l7.7,7.7c0.1,0.1,0.1,0.1,0.1,0.2l2.5-2.5c1.3-1.3,3.3-1.4,4.7-0.2l6.3,5.2c0.3,0.3,0.4,0.7,0.1,1.1c-0.3,0.3-0.7,0.4-1.1,0.1
			l-6.3-5.2c-0.8-0.7-1.9-0.6-2.7,0.1l-10.5,10.5C-586.3-798.3-586.5-798.3-586.7-798.3z"/>
	</g>
	<g id="Rectangle_7943_00000116931744935349043430000000651687208024884622_">
		<path d="M-568.2-798.3h-31.6c-1.5,0-2.8-1.2-2.8-2.8v-25.9c0-1.5,1.2-2.8,2.8-2.8h31.6c1.5,0,2.8,1.2,2.8,2.8v25.9
			C-565.4-799.5-566.7-798.3-568.2-798.3z M-599.8-828.2c-0.7,0-1.2,0.6-1.2,1.2v25.9c0,0.7,0.6,1.2,1.2,1.2h31.6
			c0.7,0,1.2-0.6,1.2-1.2v-25.9c0-0.7-0.6-1.2-1.2-1.2H-599.8z"/>
	</g>
</g>
</svg>
