<?xml version="1.0" encoding="utf-8"?>
<!-- Generator: Adobe Illustrator 27.1.0, SVG Export Plug-In . SVG Version: 6.00 Build 0)  -->
<svg version="1.1" id="Guides" xmlns="http://www.w3.org/2000/svg" xmlns:xlink="http://www.w3.org/1999/xlink" x="0px" y="0px"
	 viewBox="0 0 24 24" enable-background="new 0 0 24 24" xml:space="preserve">
<g>
	<g id="Path_77074_00000168080179680312263070000000250551712231452093_">
		<path d="M16.1,16.9c-0.2,0-0.4-0.1-0.6-0.3l-3.4-3.4l-3.4,3.4c-0.3,0.3-0.9,0.3-1.2,0c-0.3-0.3-0.3-0.9,0-1.2l3.4-3.4L7.4,8.5
			C7,8.2,7,7.6,7.4,7.3c0.3-0.3,0.9-0.3,1.2,0l3.4,3.4l3.4-3.4c0.3-0.3,0.9-0.3,1.2,0c0.3,0.3,0.3,0.9,0,1.2L13.3,12l3.4,3.4
			c0.3,0.3,0.3,0.9,0,1.2C16.6,16.8,16.4,16.9,16.1,16.9z"/>
	</g>
	<g>
		<path d="M12.1,22.3C6.4,22.3,1.7,17.7,1.7,12S6.4,1.7,12.1,1.7S22.4,6.3,22.4,12S17.8,22.3,12.1,22.3z M12.1,3.4
			c-4.7,0-8.6,3.9-8.6,8.6s3.9,8.6,8.6,8.6s8.6-3.9,8.6-8.6S16.8,3.4,12.1,3.4z"/>
	</g>
</g>
</svg>
