<?xml version="1.0" encoding="utf-8"?>
<!-- Generator: Adobe Illustrator 27.1.1, SVG Export Plug-In . SVG Version: 6.00 Build 0)  -->
<svg version="1.1" xmlns="http://www.w3.org/2000/svg" xmlns:xlink="http://www.w3.org/1999/xlink" x="0px" y="0px"
	 viewBox="0 0 380 64" enable-background="new 0 0 380 64" xml:space="preserve">
<g id="Guides">
</g>
<g id="Crop_Marks">
	
		<linearGradient id="SVGID_00000132766517815101764010000006893122279183567494_" gradientUnits="userSpaceOnUse" x1="-4523.4233" y1="9452.3418" x2="-4523.4233" y2="7567.3545" gradientTransform="matrix(-1 0 0 -1 -3249.8987 8349.6162)">
		<stop  offset="0" style="stop-color:#466168;stop-opacity:0.485"/>
		<stop  offset="1" style="stop-color:#AAEDFF;stop-opacity:0.03"/>
	</linearGradient>
	<polygon display="none" opacity="0.7" fill="url(#SVGID_00000132766517815101764010000006893122279183567494_)" points="
		-143.153,-1102.725 2690.202,-1102.725 2690.202,782.262 -143.153,782.262 	"/>
	<g>
		
			<circle fill="none" stroke="#228ABA" stroke-width="5.6569" stroke-linecap="round" stroke-miterlimit="10" cx="103.942" cy="9.513" r="4.492"/>
		<circle fill="none" stroke="#219CC0" stroke-width="5.6569" stroke-miterlimit="10" cx="87.102" cy="32.495" r="16.84"/>
		<path fill="none" stroke="#228ABA" stroke-width="5.6569" stroke-linecap="round" stroke-miterlimit="10" d="M113.405,41.545
			c-1.699,4.732-4.687,9.068-8.9,12.44c-12.141,9.717-29.861,7.752-39.578-4.389s-7.752-29.861,4.389-39.578
			c8.818-7.058,20.579-7.953,30.08-3.262"/>
		<path fill="#000" d="M23.853,34.094l-9.957,10.11v14.077H6.121V3.84H13.9l-0.002,30.409L43.453,3.84h8.867L29.063,28.339l24.733,29.943h-9.1
			L23.853,34.094z"/>
		<path fill="#000" d="M124.523,12.916h6.482l-0.002,45.368h-6.48V12.916z"/>
		<path fill="#000" d="M193.266,3.845l-23.88,54.442h-7.701L137.734,3.843h8.399l19.598,44.721l19.755-44.719H193.266z"/>
		<path fill="#000" d="M199.99,12.918h6.48v45.368h-6.48V12.918z"/>
		<path fill="#000" d="M223.417,57.216c-3.176-1.057-5.671-2.429-7.484-4.116l2.398-5.055c1.726,1.556,3.94,2.821,6.642,3.792
			c2.702,0.975,5.476,1.46,8.329,1.46c3.759,0,6.567-0.636,8.424-1.913c1.857-1.272,2.788-2.97,2.788-5.086
			c0-1.556-0.508-2.819-1.523-3.792c-1.015-0.973-2.267-1.718-3.757-2.236c-1.494-0.519-3.599-1.101-6.321-1.749
			c-3.413-0.822-6.168-1.642-8.262-2.467c-2.097-0.82-3.892-2.083-5.381-3.792c-1.489-1.706-2.236-4.007-2.236-6.901
			c0-2.42,0.636-4.601,1.913-6.547c1.272-1.944,3.209-3.499,5.8-4.665c2.593-1.166,5.811-1.749,9.656-1.749
			c2.679,0,5.314,0.346,7.907,1.037s4.818,1.684,6.675,2.981l-2.136,5.186c-1.902-1.21-3.934-2.128-6.095-2.755
			c-2.159-0.627-4.277-0.94-6.352-0.94c-3.67,0-6.427,0.669-8.262,2.008c-1.837,1.339-2.755,3.067-2.755,5.184
			c0,1.556,0.519,2.819,1.556,3.792c1.037,0.973,2.32,1.731,3.856,2.269c1.534,0.541,3.619,1.113,6.254,1.718
			c3.413,0.822,6.159,1.642,8.231,2.464c2.074,0.82,3.856,2.072,5.348,3.759c1.489,1.684,2.234,3.954,2.234,6.804
			c0,2.378-0.647,4.548-1.944,6.513c-1.296,1.968-3.264,3.524-5.897,4.667c-2.637,1.146-5.877,1.718-9.723,1.718
			C229.886,58.807,226.593,58.278,223.417,57.216z"/>
		<path fill="#000" d="M260.329,12.92h6.48v45.368h-6.48V12.92z"/>
		<path fill="#000" d="M288.519,55.793c-3.67-2.008-6.556-4.785-8.652-8.329c-2.097-3.542-3.143-7.495-3.143-11.859s1.048-8.317,3.145-11.861
			c2.094-3.544,4.98-6.318,8.652-8.329s7.799-3.014,12.38-3.012c4.537,0,8.641,1.004,12.313,3.014
			c3.672,2.01,6.547,4.774,8.619,8.295c2.074,3.522,3.112,7.486,3.112,11.894c0,4.406-1.037,8.371-3.112,11.892
			c-2.074,3.522-4.947,6.287-8.621,8.295c-3.67,2.01-7.775,3.014-12.313,3.014C296.32,58.807,292.193,57.803,288.519,55.793z
			 M309.874,50.773c2.659-1.514,4.754-3.597,6.29-6.254c1.531-2.657,2.3-5.629,2.3-8.911c0-3.284-0.767-6.256-2.3-8.914
			s-3.63-4.741-6.287-6.254c-2.657-1.511-5.649-2.267-8.976-2.267c-3.327-0.002-6.341,0.754-9.04,2.265
			c-2.704,1.514-4.82,3.597-6.352,6.254c-1.536,2.657-2.303,5.629-2.303,8.914c0,3.282,0.765,6.254,2.3,8.911
			c1.531,2.657,3.65,4.741,6.352,6.254c2.699,1.511,5.713,2.267,9.04,2.269C304.227,53.041,307.219,52.285,309.874,50.773z"/>
		<path fill="#000" d="M373.879,12.925l-0.002,45.368l-5.315-0.002l-27.22-33.831l-0.002,33.831h-6.48V12.922h5.314l27.22,33.833l0.002-33.833
			L373.879,12.925z"/>
	</g>
</g>
</svg>
