<?xml version="1.0" encoding="utf-8"?>
<!-- Generator: Adobe Illustrator 22.0.1, SVG Export Plug-In . SVG Version: 6.00 Build 0)  -->
<svg version="1.1" id="Layer_1" xmlns="http://www.w3.org/2000/svg" xmlns:xlink="http://www.w3.org/1999/xlink" x="0px" y="0px"
	 viewBox="0 0 26 26" enable-background="new 0 0 26 26" xml:space="preserve">
<g>
	<g>
		<path d="M13,16.66c-3.714,0-6.736-3.021-6.736-6.736c0-3.714,3.021-6.735,6.736-6.735s6.736,3.021,6.736,6.735
			C19.736,13.638,16.714,16.66,13,16.66z M13,4.188c-3.163,0-5.736,2.573-5.736,5.735c0,3.163,2.573,5.736,5.736,5.736
			s5.736-2.573,5.736-5.736C18.736,6.761,16.163,4.188,13,4.188z"/>
	</g>
	<g>
		<path d="M17.34,22.814c-0.171,0-0.342-0.046-0.498-0.136l-3.883-2.244l-3.796,2.233c-0.311,0.184-0.684,0.186-0.997,0.006
			c-0.313-0.179-0.5-0.501-0.5-0.862v-7.872h1v7.872l3.792-2.238c0.31-0.183,0.692-0.183,1-0.004l3.883,2.244l-0.009-7.874h1v7.879
			c0,0.359-0.186,0.682-0.497,0.861C17.681,22.769,17.51,22.814,17.34,22.814z"/>
	</g>
	<g>
		<path d="M13,12.043c-1.169,0-2.12-0.951-2.12-2.12s0.951-2.12,2.12-2.12s2.12,0.951,2.12,2.12S14.169,12.043,13,12.043z M13,8.803
			c-0.618,0-1.12,0.503-1.12,1.12s0.502,1.12,1.12,1.12s1.12-0.503,1.12-1.12S13.618,8.803,13,8.803z"/>
	</g>
</g>
</svg>
