<?xml version="1.0" encoding="utf-8"?>
<!-- Generator: Adobe Illustrator 27.1.0, SVG Export Plug-In . SVG Version: 6.00 Build 0)  -->
<svg version="1.1" id="Guides" xmlns="http://www.w3.org/2000/svg" xmlns:xlink="http://www.w3.org/1999/xlink" x="0px" y="0px"
	 viewBox="0 0 48 48" enable-background="new 0 0 48 48" xml:space="preserve">
<g>
	<path d="M17.9,44.1c-2.8-0.9-5.3-2.3-7.4-4.3l2-2.2c1.9,1.7,4,2.9,6.3,3.7L17.9,44.1z M7.6,36.6c-1.7-2.3-2.9-5-3.5-7.8L7,28.2
		c0.5,2.4,1.5,4.7,3,6.7L7.6,36.6z M3.6,24.5L3.6,24.5c0-2.9,0.6-5.7,1.8-8.4l2.7,1.2c-1,2.2-1.5,4.6-1.5,7.1L3.6,24.5z M41.4,20.8
		c-0.5-2.4-1.5-4.7-3-6.7l2.4-1.8c1.7,2.3,2.9,5,3.5,7.8L41.4,20.8z M10,14.2l-2.4-1.8c1.7-2.4,3.8-4.3,6.3-5.7l1.5,2.6
		C13.3,10.5,11.4,12.2,10,14.2z M36,11.4c-1.9-1.7-4-2.9-6.3-3.6l0.9-2.9c2.8,0.9,5.3,2.3,7.4,4.3L36,11.4z M18.7,7.8l-0.9-2.9
		C20.5,4,23.4,3.7,26.3,4L26,7C23.5,6.7,21.1,7,18.7,7.8z"/>
</g>
</svg>
