<?xml version="1.0" encoding="utf-8"?>
<!-- Generator: Adobe Illustrator 22.0.1, SVG Export Plug-In . SVG Version: 6.00 Build 0)  -->
<svg version="1.1" id="Guides" xmlns="http://www.w3.org/2000/svg" xmlns:xlink="http://www.w3.org/1999/xlink" x="0px" y="0px"
	 viewBox="0 0 48 48" enable-background="new 0 0 48 48" xml:space="preserve">
<g>
	<path fill="#3FE7E7" d="M24,44.6c-0.7,0-1.4,0-2.1-0.1l0.3-3c2.5,0.3,5,0,7.3-0.8l0.9,2.9C28.3,44.3,26.2,44.6,24,44.6z M17.7,43.6
		c-2.8-0.9-5.3-2.3-7.4-4.3l2-2.2c1.9,1.7,4,2.9,6.3,3.7L17.7,43.6z M34.3,41.8l-1.5-2.6c2.1-1.2,4-2.9,5.4-4.9l2.4,1.8
		C39,38.5,36.8,40.4,34.3,41.8z M7.4,36.1c-1.7-2.3-2.9-5-3.5-7.8l2.9-0.6c0.5,2.4,1.5,4.7,3,6.7L7.4,36.1z M42.8,32.4l-2.7-1.2
		c1-2.3,1.5-4.7,1.5-7.2l2.4-0.1l0.6,0C44.6,26.9,44,29.7,42.8,32.4z M3.4,24L3.4,24c0-2.9,0.6-5.7,1.8-8.4l2.7,1.2
		c-1,2.2-1.5,4.6-1.5,7.1L3.4,24z M41.2,20.3c-0.5-2.4-1.5-4.7-3-6.7l2.4-1.8c1.7,2.3,2.9,5,3.5,7.8L41.2,20.3z M9.7,13.7l-2.4-1.8
		c1.7-2.4,3.8-4.3,6.3-5.7l1.5,2.6C13.1,10,11.2,11.7,9.7,13.7z M35.7,10.9c-1.9-1.7-4-2.9-6.3-3.6l0.9-2.9c2.8,0.9,5.3,2.3,7.4,4.3
		L35.7,10.9z M18.5,7.3l-0.9-2.9c2.1-0.7,4.2-1,6.4-1c0,0,0,0,0,0c0.7,0,1.4,0,2.1,0.1l-0.3,3c-0.6-0.1-1.2-0.1-1.8-0.1c0,0,0,0,0,0
		C22.1,6.4,20.3,6.7,18.5,7.3z"/>
</g>
</svg>
