<?xml version="1.0" encoding="utf-8"?>
<!-- Generator: Adobe Illustrator 22.0.1, SVG Export Plug-In . SVG Version: 6.00 Build 0)  -->
<svg version="1.1" id="Layer_1" xmlns="http://www.w3.org/2000/svg" xmlns:xlink="http://www.w3.org/1999/xlink" x="0px" y="0px"
	 viewBox="0 0 26 26" enable-background="new 0 0 26 26" xml:space="preserve">
<g>
	<g>
		<path d="M13,22.179c-4.92,0-8.924-4.003-8.924-8.924c0-2.721,1.218-5.259,3.342-6.963c0.323-0.26,0.796-0.207,1.054,0.115
			C8.732,6.731,8.68,7.202,8.357,7.462C6.59,8.88,5.576,10.991,5.576,13.255c0,4.094,3.33,7.424,7.424,7.424s7.424-3.33,7.424-7.424
			c0-2.251-1.005-4.355-2.756-5.773c-0.322-0.261-0.372-0.732-0.111-1.055c0.26-0.323,0.732-0.372,1.055-0.111
			c2.105,1.704,3.313,4.233,3.313,6.939C21.924,18.176,17.92,22.179,13,22.179z"/>
	</g>
	<g>
		<path d="M13,14.557c-0.414,0-0.75-0.336-0.75-0.75V4.571c0-0.414,0.336-0.75,0.75-0.75s0.75,0.336,0.75,0.75v9.235
			C13.75,14.221,13.414,14.557,13,14.557z"/>
	</g>
</g>
</svg>
