<?xml version="1.0" encoding="utf-8"?>
<!-- Generator: Adobe Illustrator 22.0.1, SVG Export Plug-In . SVG Version: 6.00 Build 0)  -->
<svg version="1.1" id="Layer_1" xmlns="http://www.w3.org/2000/svg" xmlns:xlink="http://www.w3.org/1999/xlink" x="0px" y="0px"
	 viewBox="0 0 26 26" enable-background="new 0 0 26 26" xml:space="preserve">
<g>
	<g enable-background="new    ">
		<path d="M7.368,15.51v-3.4h0.537v2.942h1.574v0.458H7.368z"/>
		<path d="M11.628,15.51v-3.4h0.969c0.126,0,0.237,0.003,0.332,0.008c0.095,0.006,0.194,0.017,0.298,0.033
			c0.104,0.016,0.192,0.038,0.266,0.066c0.074,0.028,0.146,0.065,0.214,0.113c0.068,0.047,0.124,0.104,0.167,0.17
			c0.043,0.066,0.077,0.147,0.102,0.242s0.038,0.202,0.038,0.322c0,0.144-0.02,0.269-0.059,0.377s-0.094,0.199-0.166,0.271
			c-0.071,0.072-0.161,0.131-0.27,0.176s-0.227,0.078-0.355,0.097c-0.128,0.02-0.274,0.029-0.438,0.029h-0.561v1.495H11.628z
			 M12.165,13.555h0.551c0.095,0,0.178-0.004,0.25-0.012c0.071-0.008,0.139-0.022,0.203-0.044s0.116-0.051,0.155-0.087
			c0.04-0.035,0.071-0.082,0.095-0.14c0.023-0.058,0.035-0.125,0.035-0.203c0-0.076-0.008-0.143-0.024-0.199
			c-0.016-0.056-0.043-0.102-0.079-0.139c-0.037-0.036-0.076-0.065-0.118-0.087c-0.042-0.022-0.099-0.039-0.17-0.05
			c-0.072-0.011-0.139-0.018-0.202-0.021s-0.145-0.005-0.244-0.005h-0.451V13.555z"/>
		<path d="M16.21,15.51v-3.4h0.572c0.137,0.201,0.326,0.477,0.566,0.826c0.24,0.351,0.461,0.673,0.661,0.966
			c0.2,0.294,0.387,0.571,0.56,0.833v-2.625h0.509v3.4h-0.575c-0.137-0.199-0.327-0.474-0.57-0.823
			c-0.243-0.35-0.465-0.671-0.666-0.964c-0.201-0.292-0.388-0.57-0.561-0.833v2.62H16.21z"/>
	</g>
	<g>
		<path d="M22.443,18.458H3.557c-1.191,0-2.161-0.969-2.161-2.16v-5.221c0-1.191,0.969-2.16,2.161-2.16h18.887
			c1.191,0,2.161,0.969,2.161,2.16v5.221C24.604,17.489,23.635,18.458,22.443,18.458z M3.557,9.917c-0.64,0-1.161,0.521-1.161,1.16
			v5.221c0,0.64,0.521,1.16,1.161,1.16h18.887c0.64,0,1.161-0.521,1.161-1.16v-5.221c0-0.64-0.521-1.16-1.161-1.16H3.557z"/>
	</g>
</g>
</svg>
