<?xml version="1.0" encoding="utf-8"?>
<!-- Generator: Adobe Illustrator 27.1.0, SVG Export Plug-In . SVG Version: 6.00 Build 0)  -->
<svg version="1.1" id="Guides" xmlns="http://www.w3.org/2000/svg" xmlns:xlink="http://www.w3.org/1999/xlink" x="0px" y="0px"
	 viewBox="0 0 24 24" enable-background="new 0 0 24 24" xml:space="preserve">
<g>
	<g>
		<g>
			<path d="M18.1,10.9c-0.1,0-0.3,0-0.4-0.1c-4.9-3.4-9.3-1.4-11.4,0c-0.3,0.2-0.8,0.1-1-0.2s-0.1-0.8,0.2-1c2-1.3,7.3-4,13.1,0
				c0.3,0.2,0.4,0.7,0.2,1C18.6,10.8,18.4,10.9,18.1,10.9z"/>
		</g>
	</g>
	<g>
		<g>
			<path d="M13.3,12.4c-2-0.5-3.5,0.4-4.3,0.9c-0.1,0.1-0.3,0.1-0.4,0.1c-0.2,0-0.5-0.1-0.6-0.3c-0.2-0.3-0.1-0.8,0.2-1
				c1-0.7,2.7-1.7,5.1-1.2"/>
		</g>
	</g>
	<g>
		<g>
			<path d="M13.3,16c-0.8-0.5-1.8-0.2-2-0.1c-0.1,0.1-0.3,0.2-0.5,0.2c-0.2,0-0.4-0.1-0.6-0.2c-0.3-0.3-0.3-0.8,0-1.1
				c0.9-0.8,1.8-1,3.1-0.4"/>
		</g>
	</g>
	<g id="Path_77074_00000114070358158057612090000008227912987333464969_">
		<polygon points="17.7,16.6 16.3,15.1 14.9,16.6 13.8,15.5 15.3,14.1 13.8,12.7 14.9,11.6 16.3,13 17.7,11.6 18.8,12.7 17.4,14.1 
			18.8,15.5 		"/>
	</g>
</g>
</svg>
