<?xml version="1.0" encoding="utf-8"?>
<!-- Generator: Adobe Illustrator 22.0.1, SVG Export Plug-In . SVG Version: 6.00 Build 0)  -->
<svg version="1.1" id="Layer_1" xmlns="http://www.w3.org/2000/svg" xmlns:xlink="http://www.w3.org/1999/xlink" x="0px" y="0px"
	 viewBox="0 0 26 26" enable-background="new 0 0 26 26" xml:space="preserve">
<g id="Group_35276_1_" transform="translate(156.942 -17.316)">
	<g id="Line_1334_5_">
		<path d="M-137.725,28.369h-7.572c-0.276,0-0.5-0.224-0.5-0.5s0.224-0.5,0.5-0.5h7.572c0.276,0,0.5,0.224,0.5,0.5
			S-137.449,28.369-137.725,28.369z"/>
	</g>
	<g id="Line_1335_2_">
		<path d="M-141.705,33.404h-3.787c-0.276,0-0.5-0.224-0.5-0.5s0.224-0.5,0.5-0.5h3.787c0.276,0,0.5,0.224,0.5,0.5
			S-141.428,33.404-141.705,33.404z"/>
	</g>
	<g id="Path_82379_2_">
		<path d="M-151.921,37.906c-1.326,0-2.414-1.076-2.426-2.407V25.142c0.01-1.345,1.133-2.402,2.448-2.416h15.917
			c1.339,0.008,2.435,1.072,2.444,2.412v10.356c-0.012,1.336-1.101,2.412-2.43,2.412c-0.006,0-0.011,0-0.017,0h-15.918
			C-151.908,37.906-151.915,37.906-151.921,37.906z M-135.982,36.906h0.004c0.003,0,0.007,0,0.01,0c0.783,0,1.423-0.633,1.43-1.417
			V25.142c-0.006-0.781-0.646-1.416-1.43-1.416c-0.003,0-0.007,0-0.011,0h-15.924c-0.003,0-0.007,0-0.011,0
			c-0.788,0-1.428,0.635-1.434,1.42v10.349c0.007,0.779,0.647,1.412,1.43,1.412c0.003,0,0.007,0,0.01,0H-135.982z"/>
	</g>
	<g id="checkmark-outline_75_">
		<path d="M-149.541,29.552c-0.132,0-0.259-0.053-0.354-0.146l-0.746-0.745c-0.195-0.195-0.195-0.512,0-0.707s0.512-0.195,0.707,0
			l0.368,0.367l1.387-1.587c0.182-0.21,0.498-0.229,0.706-0.047c0.208,0.182,0.229,0.497,0.047,0.705l-1.739,1.989
			c-0.091,0.104-0.221,0.166-0.36,0.171C-149.53,29.552-149.536,29.552-149.541,29.552z"/>
	</g>
	<g id="checkmark-outline_74_">
		<path d="M-149.541,34.068c-0.132,0-0.26-0.053-0.354-0.146l-0.746-0.747c-0.195-0.195-0.195-0.513,0.001-0.707
			c0.195-0.195,0.512-0.195,0.707,0l0.368,0.369l1.387-1.586c0.182-0.209,0.498-0.229,0.706-0.047
			c0.208,0.182,0.229,0.497,0.047,0.705l-1.739,1.988c-0.091,0.104-0.222,0.166-0.36,0.171
			C-149.53,34.068-149.536,34.068-149.541,34.068z"/>
	</g>
</g>
</svg>
