<?xml version="1.0" encoding="utf-8"?>
<!-- Generator: Adobe Illustrator 22.0.1, SVG Export Plug-In . SVG Version: 6.00 Build 0)  -->
<svg version="1.1" id="Layer_1" xmlns="http://www.w3.org/2000/svg" xmlns:xlink="http://www.w3.org/1999/xlink" x="0px" y="0px"
	 viewBox="0 0 26 26" enable-background="new 0 0 26 26" xml:space="preserve">
<g id="Retake_1-384_3_" transform="translate(49.028 1124.772)">
	<g id="Path_82348_3_">
		<path d="M-26.612-1104.086h-18.836c-0.354-0.002-0.685-0.141-0.933-0.391c-0.248-0.251-0.384-0.583-0.382-0.936v-10.299
			c0-0.728,0.592-1.319,1.319-1.319h3.071c0.086,0,0.167-0.033,0.228-0.094l1.947-1.946c0.246-0.246,0.585-0.387,0.932-0.387
			c0.002,0,0.004,0,0.006,0h6.047c0.002,0,0.004,0,0.006,0c0.333,0,0.652,0.127,0.898,0.356l2.092,1.964
			c0.06,0.057,0.138,0.087,0.22,0.087h3.386c0.728,0,1.319,0.592,1.319,1.319v10.325
			C-25.293-1104.678-25.884-1104.086-26.612-1104.086z M-45.444-1116.031c-0.176,0-0.319,0.144-0.319,0.319v10.302
			c0,0.088,0.032,0.168,0.092,0.229s0.14,0.095,0.225,0.095l0.005,0.5v-0.5h18.83c0.176,0,0.319-0.144,0.319-0.319v-10.325
			c0-0.176-0.143-0.319-0.319-0.319h-3.386c-0.339,0-0.66-0.128-0.905-0.359l-2.09-1.962c-0.059-0.055-0.136-0.086-0.216-0.086
			c0,0-0.001,0-0.001,0h-6.052c-0.071,0.031-0.167,0.033-0.228,0.094l-1.947,1.946c-0.25,0.249-0.581,0.387-0.935,0.387H-45.444z"/>
	</g>
	<g id="Group_34916_3_" transform="translate(13.406 10.475)">
		<g id="Path_82349_3_">
			<path d="M-50.404-1117.162c-0.05,0-0.102-0.008-0.152-0.023c-2.394-0.764-3.721-3.331-2.959-5.725
				c0.367-1.15,1.193-2.125,2.269-2.676c0.245-0.126,0.546-0.028,0.673,0.218c0.125,0.246,0.028,0.547-0.218,0.673
				c-0.839,0.43-1.485,1.19-1.771,2.088c-0.595,1.868,0.441,3.873,2.31,4.469c0.263,0.084,0.408,0.365,0.325,0.629
				C-49.996-1117.298-50.192-1117.162-50.404-1117.162z"/>
		</g>
		<g id="Path_82350_3_">
			<path d="M-47.811-1117.208c-0.206,0-0.398-0.127-0.471-0.332c-0.093-0.26,0.042-0.546,0.303-0.639
				c1.411-0.504,2.358-1.849,2.359-3.348c0-1.961-1.595-3.557-3.556-3.558c-0.276,0-0.5-0.224-0.5-0.5s0.224-0.5,0.5-0.5l0,0
				c2.513,0.001,4.556,2.046,4.556,4.558c0,1.92-1.215,3.644-3.023,4.289C-47.698-1117.217-47.755-1117.208-47.811-1117.208z"/>
		</g>
		<g id="Path_77085_30_">
			<path d="M-48.229-1123.631c-0.144,0-0.286-0.062-0.385-0.181l-1.16-1.397c-0.164-0.197-0.152-0.487,0.029-0.671l1.286-1.303
				c0.194-0.195,0.511-0.199,0.707-0.004c0.197,0.193,0.199,0.51,0.005,0.707l-0.968,0.98l0.871,1.049
				c0.176,0.213,0.147,0.527-0.065,0.704C-48.003-1123.669-48.117-1123.631-48.229-1123.631z"/>
		</g>
	</g>
</g>
</svg>
