<?xml version="1.0" encoding="utf-8"?>
<!-- Generator: Adobe Illustrator 22.0.1, SVG Export Plug-In . SVG Version: 6.00 Build 0)  -->
<svg version="1.1" id="Guides" xmlns="http://www.w3.org/2000/svg" xmlns:xlink="http://www.w3.org/1999/xlink" x="0px" y="0px"
	 viewBox="0 0 26 26" enable-background="new 0 0 26 26" xml:space="preserve">
<g id="Retry_2-447" transform="translate(6.793 7.963)">
	<g id="Path_82349_3_">
		<path  d="M5.4,17.9c-0.9,0-1.8-0.1-2.6-0.4c-2.3-0.7-4.3-2.2-5.7-4.1c-3.7-5-2.6-12.1,2.5-15.8
			c0.3-0.2,0.8-0.2,1,0.2c0.2,0.3,0.2,0.8-0.2,1C-4,2-4.9,8.1-1.7,12.5c1.2,1.7,3,2.9,5,3.6c0.9,0.3,1.8,0.4,2.8,0.3
			c0.4,0,0.8,0.3,0.8,0.7c0,0.4-0.3,0.8-0.7,0.8C5.9,17.9,5.6,17.9,5.4,17.9z"/>
	</g>
	<g id="Path_82350_4_">
		<path  d="M9.8,17.4c-0.3,0-0.6-0.2-0.7-0.5c-0.1-0.4,0.1-0.8,0.5-1c3.9-1.4,6.5-5.1,6.5-9.3c0-5.4-4.4-9.8-9.8-9.8
			c0,0,0,0,0,0l0,0c-0.4,0-0.8-0.3-0.8-0.8s0.3-0.7,0.8-0.7c0,0,0,0,0,0c6.2,0,11.3,5.1,11.3,11.3c0,4.8-3,9.1-7.5,10.7
			C9.9,17.4,9.8,17.4,9.8,17.4z"/>
	</g>
	<g id="Path_77085_82_">
		<path  d="M8.7,0.7c-0.2,0-0.4-0.1-0.6-0.3l-3-3.6c-0.2-0.3-0.2-0.7,0-1l3.4-3.4c0.3-0.3,0.8-0.3,1.1,0
			c0.3,0.3,0.3,0.8,0,1.1L6.7-3.7l2.6,3.1c0.3,0.3,0.2,0.8-0.1,1.1C9,0.6,8.8,0.7,8.7,0.7z"/>
	</g>
</g>
</svg>
