<?xml version="1.0" encoding="utf-8"?>
<!-- Generator: Adobe Illustrator 22.0.1, SVG Export Plug-In . SVG Version: 6.00 Build 0)  -->
<svg version="1.1" id="Layer_1" xmlns="http://www.w3.org/2000/svg" xmlns:xlink="http://www.w3.org/1999/xlink" x="0px" y="0px"
	 viewBox="0 0 26 26" enable-background="new 0 0 26 26" xml:space="preserve">
<g>
	<g>
		<path d="M20.042,20.746H5.979c-0.701,0-1.271-0.57-1.271-1.271V5.855c0-0.797,0.648-1.444,1.444-1.444h10.689
			c0.418,0,0.828,0.171,1.123,0.47l2.873,2.908c0.293,0.298,0.455,0.692,0.455,1.109v10.599
			C21.292,20.186,20.731,20.746,20.042,20.746z M6.152,5.41c-0.245,0-0.444,0.199-0.444,0.444v13.621
			c0,0.149,0.122,0.271,0.271,0.271h14.063c0.138,0,0.25-0.112,0.25-0.25V8.898c0-0.153-0.06-0.298-0.167-0.407l-2.873-2.907
			c-0.108-0.11-0.258-0.173-0.411-0.173H6.152z"/>
	</g>
	<g>
		<path d="M17.375,20.746c-0.276,0-0.5-0.224-0.5-0.5v-5.574c0-0.097-0.079-0.176-0.176-0.176H9.384
			c-0.097,0-0.176,0.079-0.176,0.176v5.574c0,0.276-0.224,0.5-0.5,0.5s-0.5-0.224-0.5-0.5v-5.574c0-0.648,0.527-1.176,1.176-1.176
			h7.315c0.648,0,1.176,0.527,1.176,1.176v5.574C17.875,20.523,17.651,20.746,17.375,20.746z"/>
	</g>
</g>
</svg>
