<?xml version="1.0" encoding="utf-8"?>
<!-- Generator: Adobe Illustrator 22.0.1, SVG Export Plug-In . SVG Version: 6.00 Build 0)  -->
<svg version="1.1" id="Layer_1" xmlns="http://www.w3.org/2000/svg" xmlns:xlink="http://www.w3.org/1999/xlink" x="0px" y="0px"
	 viewBox="0 0 26 26" enable-background="new 0 0 26 26" xml:space="preserve">
<g id="Seal-371_1_" transform="translate(89.22 25.39)">
	<g id="Group_34784_1_" transform="translate(0 -0.001)">
		<g id="Union_7_30_">
			<path d="M-76.879-2.83c-0.403,0-0.812-0.123-1.161-0.373l-4.261-2.554l-2.097-1.357c-0.411-0.306-0.663-0.743-0.717-1.219
				l-0.003-7.164c0.003-0.79,0.431-1.52,1.115-1.907l7.721-4.295c0.755-0.573,1.439-0.059,1.893,0.282l5.966,3.649
				c0.649,0.412,1.057,1.109,1.099,1.87l0.001,7.385c0,0.163-0.08,0.315-0.212,0.409c-0.037,0.052-0.083,0.098-0.138,0.134
				l-2.082,1.349l-6.03,3.446C-76.102-2.946-76.488-2.83-76.879-2.83z M-77.75-4.232c0.101,0,0.203,0.03,0.291,0.094
				c0.339,0.244,0.794,0.244,1.133,0l6.049-3.46l1.832-1.119v-7.029c-0.024-0.411-0.26-0.813-0.63-1.049l-5.999-3.672
				c-0.089-0.043-0.201-0.106-0.303-0.164c-0.261-0.149-0.328-0.181-0.381-0.156c-0.053,0.019-0.11,0.051-0.16,0.025l-7.595,4.23
				c-0.37,0.21-0.603,0.607-0.604,1.037v7.105c0.02,0.146,0.127,0.333,0.291,0.454l2.055,1.33l3.962,2.377
				C-77.79-4.231-77.77-4.232-77.75-4.232z"/>
		</g>
		<g id="Path_68275_25_">
			<path d="M-76.65-11.443c-0.087,0-0.173-0.022-0.251-0.067l-7.6-4.413c-0.239-0.139-0.32-0.445-0.182-0.684
				c0.138-0.239,0.444-0.32,0.684-0.182l7.358,4.273l8.21-4.403c0.243-0.134,0.547-0.038,0.677,0.204
				c0.131,0.243,0.039,0.547-0.204,0.677l-8.457,4.535C-76.488-11.463-76.569-11.443-76.65-11.443z"/>
		</g>
		<g id="Line_441_25_">
			<path d="M-77.018-3.109c-0.276,0-0.5-0.224-0.5-0.5v-8.457c0-0.276,0.224-0.5,0.5-0.5s0.5,0.224,0.5,0.5v8.457
				C-76.518-3.333-76.741-3.109-77.018-3.109z"/>
		</g>
	</g>
	<g id="Line_1318_1_">
		<path d="M-73.953-9.974c-0.175,0-0.345-0.092-0.437-0.256c-0.135-0.241-0.048-0.546,0.192-0.681l4.167-2.329
			c0.241-0.134,0.545-0.049,0.681,0.192c0.135,0.241,0.048,0.546-0.192,0.681l-4.167,2.329C-73.787-9.994-73.871-9.974-73.953-9.974
			z"/>
	</g>
</g>
</svg>
