<?xml version="1.0" encoding="utf-8"?>
<!-- Generator: Adobe Illustrator 27.1.0, SVG Export Plug-In . SVG Version: 6.00 Build 0)  -->
<svg version="1.1" id="Guides" xmlns="http://www.w3.org/2000/svg" xmlns:xlink="http://www.w3.org/1999/xlink" x="0px" y="0px"
	 viewBox="0 0 24 24" enable-background="new 0 0 24 24" xml:space="preserve">
<g id="search-outline" transform="translate(282 840.82)">
	<g id="Path_70389">
		<path d="M-271.2-823.8c-3.5,0-6.3-2.8-6.3-6.3s2.8-6.3,6.3-6.3c3.5,0,6.3,2.8,6.3,6.3S-267.8-823.8-271.2-823.8z M-271.2-834.8
			c-2.6,0-4.8,2.1-4.8,4.8s2.1,4.8,4.8,4.8c2.6,0,4.8-2.1,4.8-4.8S-268.6-834.8-271.2-834.8z"/>
	</g>
	<g id="Path_70390">
		<path d="M-263.2-821.3c-0.2,0-0.4-0.1-0.5-0.2l-3.9-3.9c-0.3-0.3-0.3-0.8,0-1.1c0.3-0.3,0.8-0.3,1.1,0l3.9,3.9
			c0.3,0.3,0.3,0.8,0,1.1C-262.9-821.4-263-821.3-263.2-821.3z"/>
	</g>
</g>
</svg>
