<?xml version="1.0" encoding="utf-8"?>
<!-- Generator: Adobe Illustrator 22.0.1, SVG Export Plug-In . SVG Version: 6.00 Build 0)  -->
<svg version="1.1" id="Layer_1" xmlns="http://www.w3.org/2000/svg" xmlns:xlink="http://www.w3.org/1999/xlink" x="0px" y="0px"
	 viewBox="0 0 26 26" enable-background="new 0 0 26 26" xml:space="preserve">
<g id="Session_3-437_3_" transform="translate(115.734 166.423)">
	<g id="Path_82574_3_">
		<path d="M-101.866-159.643c-0.133,0-0.266-0.053-0.365-0.158c-0.189-0.201-0.179-0.518,0.023-0.707l1.361-1.276l-1.363-1.5
			c-0.186-0.204-0.17-0.521,0.034-0.706c0.206-0.185,0.521-0.172,0.707,0.034l2.025,2.229l-2.08,1.95
			C-101.621-159.688-101.744-159.643-101.866-159.643z"/>
	</g>
	<g id="Path_82575_3_">
		<path d="M-104.488-142.726c-0.134,0-0.268-0.054-0.366-0.159l-2.053-2.206l2.058-1.975c0.2-0.192,0.516-0.185,0.707,0.015
			s0.185,0.516-0.015,0.706l-1.347,1.293l1.382,1.485c0.188,0.202,0.177,0.519-0.025,0.707
			C-104.244-142.77-104.366-142.726-104.488-142.726z"/>
	</g>
	<g id="Path_82576_3_">
		<path d="M-109.977-145.207c-0.276,0-0.5-0.224-0.5-0.5v-15.28c0-0.771,0.625-1.396,1.393-1.396h8.512c0.276,0,0.5,0.224,0.5,0.5
			s-0.224,0.5-0.5,0.5h-8.512c-0.217,0-0.393,0.176-0.393,0.393v15.283C-109.477-145.431-109.7-145.207-109.977-145.207z"/>
	</g>
	<g id="Path_82577_3_">
		<path d="M-96.384-144.47h-9.04c-0.276,0-0.5-0.224-0.5-0.5s0.224-0.5,0.5-0.5h9.04c0.216,0,0.393-0.176,0.393-0.393v-15.686
			c0-0.276,0.224-0.5,0.5-0.5s0.5,0.224,0.5,0.5v15.686C-94.992-145.095-95.616-144.47-96.384-144.47z"/>
	</g>
</g>
</svg>
