<?xml version="1.0" encoding="utf-8"?>
<!-- Generator: Adobe Illustrator 22.0.1, SVG Export Plug-In . SVG Version: 6.00 Build 0)  -->
<svg version="1.1" id="Layer_1" xmlns="http://www.w3.org/2000/svg" xmlns:xlink="http://www.w3.org/1999/xlink" x="0px" y="0px"
	 viewBox="0 0 26 26" enable-background="new 0 0 26 26" xml:space="preserve">
<g id="settings-outline_12_">
	<path d="M11.185,22.574c-0.467-0.008-0.851-0.327-0.943-0.775l-0.291-2.06c-0.008-0.059-0.047-0.11-0.103-0.137
		c-0.341-0.166-0.67-0.358-0.978-0.573c-0.05-0.035-0.114-0.043-0.168-0.02l-1.906,0.767c-0.446,0.171-0.935-0.001-1.173-0.402
		l-1.818-3.145c-0.24-0.404-0.149-0.92,0.22-1.221l1.628-1.277c0.045-0.036,0.071-0.096,0.065-0.156
		C5.7,13.38,5.69,13.189,5.69,12.998c0-0.192,0.01-0.381,0.027-0.568c0.005-0.057-0.021-0.115-0.068-0.152l-1.621-1.271
		c-0.37-0.311-0.459-0.82-0.225-1.224l1.815-3.138c0.241-0.407,0.73-0.576,1.167-0.412l1.915,0.771
		c0.056,0.023,0.121,0.015,0.172-0.021c0.311-0.214,0.64-0.405,0.981-0.571c0.052-0.025,0.088-0.075,0.097-0.133l0.285-2.032
		c0.083-0.474,0.478-0.811,0.94-0.818h3.64c0.458,0.006,0.852,0.332,0.943,0.774l0.291,2.061c0.008,0.059,0.046,0.109,0.101,0.135
		c0.345,0.167,0.673,0.36,0.98,0.576c0.048,0.034,0.11,0.039,0.167,0.018l1.906-0.766c0.448-0.172,0.936,0.001,1.174,0.403
		l1.818,3.144c0.237,0.397,0.144,0.925-0.221,1.221l-1.627,1.276c-0.047,0.037-0.073,0.098-0.067,0.158
		c0.014,0.182,0.024,0.359,0.025,0.538c0,0.012,0.001,0.023,0.001,0.036c-0.001,0.22-0.013,0.439-0.034,0.658l1.696,1.33
		c0.373,0.311,0.463,0.823,0.227,1.229l-1.815,3.137c-0.242,0.406-0.731,0.577-1.167,0.413l-1.916-0.771
		c-0.058-0.024-0.12-0.015-0.17,0.021c-0.314,0.216-0.644,0.407-0.983,0.571c-0.05,0.024-0.088,0.076-0.096,0.133l-0.285,2.031
		c-0.082,0.472-0.475,0.811-0.938,0.82H11.185z M8.769,17.997c0.237,0,0.472,0.071,0.673,0.212c0.265,0.186,0.548,0.351,0.84,0.492
		c0.355,0.171,0.603,0.507,0.659,0.898l0.285,2.029l3.589-0.055l0.244-1.989c0.054-0.388,0.296-0.723,0.649-0.895
		c0.295-0.143,0.581-0.309,0.85-0.494c0.324-0.227,0.742-0.276,1.112-0.128l1.908,0.769l1.753-3.12l-1.897-1.444
		c-0.141-0.11-0.211-0.287-0.187-0.464c0.037-0.259,0.057-0.519,0.059-0.779c0-0.009,0-0.019,0-0.027
		c0-0.165-0.009-0.328-0.022-0.49c-0.036-0.394,0.13-0.781,0.446-1.029l1.621-1.271l-1.836-3.078l-1.844,0.785
		c-0.371,0.148-0.787,0.102-1.113-0.126c-0.265-0.186-0.546-0.352-0.84-0.493c-0.354-0.168-0.603-0.505-0.659-0.897l-0.285-2.03
		l-3.589,0.056l-0.244,1.988c-0.053,0.388-0.296,0.723-0.649,0.895C9.995,7.453,9.709,7.62,9.442,7.804
		C9.115,8.031,8.699,8.078,8.33,7.931L6.422,7.164l-1.753,3.119l1.597,1.207c0.313,0.245,0.48,0.629,0.447,1.026
		c-0.014,0.161-0.023,0.32-0.023,0.481c0,0.162,0.009,0.323,0.023,0.486c0.037,0.396-0.128,0.784-0.442,1.032l-1.622,1.272
		l1.836,3.079l1.844-0.786C8.472,18.024,8.621,17.997,8.769,17.997z M13.011,16.214c-0.107,0-0.214-0.006-0.322-0.016
		c-0.854-0.085-1.625-0.497-2.169-1.161c-0.544-0.665-0.798-1.501-0.713-2.355c0.084-0.854,0.497-1.624,1.161-2.169
		c0.664-0.544,1.499-0.792,2.355-0.714V9.8c1.52,0.15,2.732,1.363,2.882,2.883c0.021,0.21,0.021,0.422,0,0.632
		c-0.084,0.854-0.497,1.625-1.161,2.17C14.463,15.96,13.751,16.214,13.011,16.214z M13.001,10.783c-0.51,0-1.001,0.175-1.4,0.503
		c-0.458,0.375-0.742,0.905-0.8,1.494c-0.059,0.589,0.116,1.165,0.491,1.622c0.375,0.458,0.906,0.742,1.495,0.8
		c0.589,0.063,1.165-0.115,1.622-0.491c0.458-0.375,0.742-0.905,0.8-1.494c0.014-0.146,0.014-0.291,0-0.437
		c-0.104-1.047-0.939-1.882-1.986-1.986C13.149,10.787,13.075,10.783,13.001,10.783z"/>
</g>
</svg>
