<?xml version="1.0" encoding="utf-8"?>
<!-- Generator: Adobe Illustrator 22.0.1, SVG Export Plug-In . SVG Version: 6.00 Build 0)  -->
<svg version="1.1" id="Layer_1" xmlns="http://www.w3.org/2000/svg" xmlns:xlink="http://www.w3.org/1999/xlink" x="0px" y="0px"
	 viewBox="0 0 26 26" enable-background="new 0 0 26 26" xml:space="preserve">
<g>
	<g id="Path_82248_4_">
		<path d="M20.118,23c-0.276,0-0.5-0.224-0.5-0.5v-19c0-0.276,0.224-0.5,0.5-0.5s0.5,0.224,0.5,0.5v19
			C20.618,22.776,20.395,23,20.118,23z"/>
	</g>
	<g>
		<path d="M6.59,21.877c-0.203,0-0.406-0.052-0.592-0.157c-0.386-0.217-0.616-0.61-0.616-1.053V5.563
			c0-0.443,0.23-0.837,0.617-1.053c0.387-0.217,0.843-0.207,1.22,0.022l12.36,7.552c0.362,0.222,0.578,0.607,0.578,1.031
			s-0.216,0.809-0.578,1.029l-12.36,7.553C7.023,21.817,6.806,21.877,6.59,21.877z M6.59,5.354c-0.043,0-0.08,0.016-0.102,0.028
			c-0.04,0.021-0.106,0.075-0.106,0.181v15.104c0,0.105,0.066,0.159,0.106,0.181c0.04,0.023,0.12,0.053,0.21-0.003l12.36-7.553
			c0.086-0.053,0.099-0.133,0.099-0.176c0-0.044-0.013-0.125-0.1-0.178L6.697,5.386C6.658,5.363,6.622,5.354,6.59,5.354z"/>
	</g>
</g>
</svg>
