<?xml version="1.0" encoding="utf-8"?>
<!-- Generator: Adobe Illustrator 22.0.1, SVG Export Plug-In . SVG Version: 6.00 Build 0)  -->
<svg version="1.1" id="Layer_1" xmlns="http://www.w3.org/2000/svg" xmlns:xlink="http://www.w3.org/1999/xlink" x="0px" y="0px"
	 viewBox="0 0 26 26" enable-background="new 0 0 26 26" xml:space="preserve">
<g id="time-outline_16_" transform="translate(40 25.939)">
	<g id="Path_70393_27_">
		<path d="M-27-2.555c-5.726,0-10.383-4.658-10.383-10.384S-32.726-23.323-27-23.323s10.384,4.658,10.384,10.384
			S-21.275-2.555-27-2.555z M-27-22.323c-5.174,0-9.383,4.21-9.383,9.384S-32.174-3.555-27-3.555c5.174,0,9.384-4.21,9.384-9.384
			S-21.826-22.323-27-22.323z"/>
	</g>
	<g id="Path_70394_22_">
		<path d="M-27.028-11.569c-0.073,0-0.146-0.016-0.214-0.048l-4.951-2.345c-0.25-0.118-0.356-0.417-0.238-0.666
			s0.417-0.353,0.666-0.238l4.458,2.111l2.477-6.701c0.096-0.258,0.383-0.393,0.642-0.295c0.259,0.096,0.392,0.383,0.295,0.643
			l-2.666,7.213c-0.048,0.131-0.15,0.236-0.28,0.289C-26.9-11.582-26.965-11.569-27.028-11.569z"/>
	</g>
</g>
</svg>
