<?xml version="1.0" encoding="utf-8"?>
<!-- Generator: Adobe Illustrator 27.1.0, SVG Export Plug-In . SVG Version: 6.00 Build 0)  -->
<svg version="1.1" id="Guides" xmlns="http://www.w3.org/2000/svg" xmlns:xlink="http://www.w3.org/1999/xlink" x="0px" y="0px"
	 viewBox="0 0 24 24" enable-background="new 0 0 24 24" xml:space="preserve">
<g>
	<g>
		<path d="M21.2,20.5H2.8v-4.6c0-0.4,0.3-0.8,0.8-0.8s0.8,0.3,0.8,0.8V19h15.3v-2.9c0-0.4,0.3-0.8,0.8-0.8s0.8,0.3,0.8,0.8V20.5z"/>
	</g>
	<g>
		<path d="M12,16.6c-0.4,0-0.8-0.3-0.8-0.8V4.4c0-0.4,0.3-0.8,0.8-0.8s0.8,0.3,0.8,0.8v11.5C12.7,16.3,12.4,16.6,12,16.6z"/>
	</g>
	<g>
		<path d="M8.6,7.8C8.4,7.8,8.2,7.7,8,7.5C7.8,7.2,7.8,6.7,8.1,6.4l3.2-2.7c0.4-0.3,0.9-0.3,1.3,0l3.1,2.5C16,6.5,16.1,7,15.8,7.3
			c-0.3,0.3-0.7,0.4-1.1,0.1L12,5.2L9.1,7.6C8.9,7.7,8.8,7.8,8.6,7.8z M12.3,4.9L12.3,4.9L12.3,4.9z"/>
	</g>
</g>
</svg>
