<?xml version="1.0" encoding="utf-8"?>
<!-- Generator: Adobe Illustrator 22.0.1, SVG Export Plug-In . SVG Version: 6.00 Build 0)  -->
<svg version="1.1" id="Layer_1" xmlns="http://www.w3.org/2000/svg" xmlns:xlink="http://www.w3.org/1999/xlink" x="0px" y="0px"
	 viewBox="0 0 26 26" enable-background="new 0 0 26 26" xml:space="preserve">
<g id="Group_34428_3_" transform="translate(19.583 146.926)">
	<g id="Path_76907_3_">
		<path fill="#C1C5C9" d="M-5.255-127.408c-1.056,0-2.011-0.71-2.286-1.761l-2.891-12.512c-0.012-0.045-0.053-0.076-0.076-0.09
			c-0.023-0.013-0.068-0.031-0.129-0.018l-3.089,0.778c-0.265,0.064-0.539-0.095-0.607-0.363c-0.067-0.268,0.095-0.539,0.363-0.607
			l3.083-0.775c0.296-0.082,0.612-0.036,0.882,0.121c0.271,0.158,0.463,0.412,0.543,0.715l2.891,12.512
			c0.177,0.676,0.864,1.109,1.568,0.976l5.581-1.15c0.274-0.062,0.535,0.117,0.591,0.389c0.056,0.271-0.118,0.534-0.389,0.59
			l-5.587,1.152C-4.956-127.423-5.106-127.408-5.255-127.408z"/>
	</g>
	<g id="Rectangle_23276_3_">
		<path fill="#FFA600" d="M-5.427-128.888c-0.297,0-0.563-0.208-0.625-0.507l-0.919-4.562c-0.069-0.341,0.152-0.677,0.494-0.749
			l0.004-0.001l4.558-0.919c0.344-0.063,0.682,0.156,0.75,0.501l0.919,4.556c0.068,0.346-0.156,0.682-0.5,0.75l-4.557,0.919
			C-5.345-128.892-5.386-128.888-5.427-128.888z M-5.92-133.798l0.775,3.847l3.846-0.775l-0.776-3.847L-5.92-133.798z
			 M-0.943-130.799c-0.001,0-0.001,0-0.002,0H-0.943z M-5.992-134.155L-5.992-134.155C-5.992-134.154-5.992-134.155-5.992-134.155z
			 M-2.147-134.929c0,0.001,0,0.002,0,0.003L-2.147-134.929z"/>
	</g>
	<g id="Rectangle_23277_3_">
		<path fill="#FFA600" d="M-6.751-135.086c-0.298,0-0.564-0.209-0.625-0.51l-0.57-2.825c-0.034-0.166,0-0.337,0.094-0.479
			c0.094-0.143,0.238-0.238,0.406-0.271l2.823-0.569c0.165-0.033,0.335-0.002,0.478,0.093c0.143,0.095,0.24,0.239,0.273,0.407
			l0.569,2.822c0.068,0.346-0.156,0.682-0.5,0.75l-2.823,0.57C-6.668-135.09-6.71-135.086-6.751-135.086z M-6.894-138.263
			l0.426,2.112l2.112-0.426l-0.426-2.112L-6.894-138.263z M-4-136.649c0,0-0.001,0-0.002,0.001L-4-136.649z M-6.966-138.619
			L-6.966-138.619C-6.966-138.618-6.966-138.619-6.966-138.619z M-4.422-138.761l-0.006,0.001
			C-4.426-138.76-4.424-138.761-4.422-138.761z M-4.854-139.045c0,0.001,0,0.002,0,0.003L-4.854-139.045z"/>
	</g>
	<g id="Ellipse_3711_3_">
		<path fill="#C0C4C8" d="M-5.655-125.056c-0.87,0-1.577-0.707-1.577-1.577c0-0.869,0.708-1.576,1.577-1.576
			s1.577,0.707,1.577,1.576C-4.077-125.763-4.785-125.056-5.655-125.056z M-5.655-127.209c-0.318,0-0.577,0.259-0.577,0.576
			c0,0.318,0.259,0.577,0.577,0.577s0.577-0.259,0.577-0.577C-5.077-126.95-5.336-127.209-5.655-127.209z"/>
	</g>
	<g id="Path_76908_3_">
		<path fill="#FEFEFF" d="M-4.073-130.65c-0.108,0-0.215-0.035-0.302-0.102l-0.666-0.506c-0.22-0.167-0.263-0.48-0.096-0.701
			c0.167-0.219,0.481-0.262,0.7-0.096l0.263,0.2l1.31-1.767c0.165-0.221,0.478-0.268,0.7-0.104c0.222,0.164,0.268,0.478,0.104,0.699
			l-1.611,2.173c-0.08,0.107-0.199,0.179-0.331,0.197C-4.026-130.652-4.05-130.65-4.073-130.65z"/>
	</g>
</g>
</svg>
