<?xml version="1.0" encoding="utf-8"?>
<!-- Generator: Adobe Illustrator 27.1.0, SVG Export Plug-In . SVG Version: 6.00 Build 0)  -->
<svg version="1.1" id="Guides" xmlns="http://www.w3.org/2000/svg" xmlns:xlink="http://www.w3.org/1999/xlink" x="0px" y="0px"
	 viewBox="0 0 24 24" enable-background="new 0 0 24 24" xml:space="preserve">
<g id="Group_36312_00000068655034782993296350000015082938993217595802_" transform="translate(-109 -361.277)">
	
		<path id="Path_83034_00000125561917888910542630000012894438316282259894_" fill="none" stroke="#C1C5C9" stroke-width="0.8479" stroke-linecap="round" stroke-linejoin="round" d="
		M112.8,364.7l3.5-0.9c0.4-0.1,0.8,0.1,0.9,0.5l3.3,14.1c0.3,1.1,1.3,1.7,2.4,1.5l6.3-1.3"/>
	
		<path id="Rectangle_26569_00000054233926171993659450000013558435546120913036_" fill="none" stroke="#D5A96F" stroke-width="0.8479" stroke-miterlimit="10" d="
		M121.2,372.9l5.2-1c0.1,0,0.2,0,0.2,0.1l1,5.2c0,0.1,0,0.2-0.1,0.2l-5.2,1c-0.1,0-0.2,0-0.2-0.1l-1-5.2
		C121.1,373,121.2,373,121.2,372.9z"/>
	
		<path id="Rectangle_26570_00000094591336371950175160000017646507973004272285_" fill="none" stroke="#D5A96F" stroke-width="0.8479" stroke-miterlimit="10" d="
		M120.1,367.9l3.2-0.6c0.1,0,0.2,0,0.2,0.1l0.6,3.2c0,0.1,0,0.2-0.1,0.2l-3.2,0.6c-0.1,0-0.2,0-0.2-0.1l-0.6-3.2
		C120,368,120,367.9,120.1,367.9z"/>
	
		<circle id="Ellipse_4302_00000167383627170820267190000013825643878204203681_" fill="none" stroke="#C0C4C8" stroke-width="0.8479" stroke-miterlimit="10" cx="122.1" cy="381.5" r="1.2"/>
	
		<path id="Path_83035_00000037652696756226255140000013988335835219463823_" fill="none" stroke="#C1C5C9" stroke-width="0.8479" stroke-linecap="round" stroke-linejoin="round" d="
		M123.1,375.8l0.8,0.6l1.8-2.5"/>
</g>
</svg>
