<?xml version="1.0" encoding="utf-8"?>
<!-- Generator: Adobe Illustrator 27.1.0, SVG Export Plug-In . SVG Version: 6.00 Build 0)  -->
<svg version="1.1" id="Guides" xmlns="http://www.w3.org/2000/svg" xmlns:xlink="http://www.w3.org/1999/xlink" x="0px" y="0px"
	 viewBox="0 0 24 24" enable-background="new 0 0 24 24" xml:space="preserve">
<g id="Group_36316_00000135687832522664678300000010857661532619715498_" transform="translate(-8007.693 4648)">
	
		<path id="Path_83059_00000064318608710715383150000017526581325272770206_" fill="none" stroke="#9FA9B3" stroke-width="0.8479" stroke-linecap="round" d="
		M8013.3-4639.2h2.4"/>
	
		<path id="Path_83060_00000085225950920613889680000009245418022974432185_" fill="none" stroke="#9FA9B3" stroke-width="0.8479" stroke-linecap="round" d="
		M8013.3-4636.8h3.8"/>
	
		<path id="Path_72648_00000042701741433724595530000005320849525509216926_" fill="none" stroke="#9FA9B3" stroke-width="0.8479" stroke-linecap="round" stroke-linejoin="round" d="
		M8021.5-4643.7h3.2c0.1,0,0.2-0.1,0.2-0.2v0l0,0c0-0.3-0.1-0.6-0.4-0.8l-2.7-2.3c-0.2-0.2-0.5-0.3-0.7-0.3l0,0
		c-0.1,0-0.3,0.1-0.3,0.3v2.6C8020.8-4644,8021.1-4643.7,8021.5-4643.7L8021.5-4643.7z"/>
	
		<path id="Path_72650_00000080167958767763207540000000194775893598442932_" fill="none" stroke="#9FA9B3" stroke-width="0.8479" stroke-linecap="round" stroke-linejoin="round" d="
		M8024.9-4641.5h-4.4c-1.1,0-2.1-0.9-2.1-2.1v-3.7h-6c-0.8,0-1.5,0.7-1.5,1.5v15.5c0,0.8,0.7,1.5,1.5,1.5h10.9
		c0.8,0,1.5-0.7,1.5-1.5v-7.7"/>
	
		<path id="Path_83061_00000114772664557190254060000013611614727344172419_" fill="none" stroke="#C0C4C8" stroke-width="0.8479" stroke-linecap="round" stroke-linejoin="round" d="
		M8019.8-4635.7l-0.6,2.2l2.2-0.7l7-7.6l-1.6-1.5L8019.8-4635.7z"/>
	
		<path id="Path_83062_00000024691751482414368060000006074286930829742467_" fill="none" stroke="#19A3FF" stroke-width="0.8479" stroke-linecap="round" stroke-linejoin="round" d="
		M8018.3-4633.1c0,0-4.3,4.3-0.6,3.6s10.1-3.8,10.4-0.6c0.1,1.5-4.2,5.3-4.2,5.3"/>
</g>
</svg>
