<?xml version="1.0" encoding="utf-8"?>
<!-- Generator: Adobe Illustrator 22.0.1, SVG Export Plug-In . SVG Version: 6.00 Build 0)  -->
<svg version="1.1" id="Layer_1" xmlns="http://www.w3.org/2000/svg" xmlns:xlink="http://www.w3.org/1999/xlink" x="0px" y="0px"
	 viewBox="0 0 22.524 28.152" enable-background="new 0 0 22.524 28.152" xml:space="preserve">
<g id="Group_35367_1_" transform="translate(-223.319 -280.985)">
	<g id="Path_82620_1_">
		<path fill="#BCBDBE" d="M232.328,294.306h-2.472c-0.276,0-0.5-0.224-0.5-0.5s0.224-0.5,0.5-0.5h2.472c0.276,0,0.5,0.224,0.5,0.5
			S232.604,294.306,232.328,294.306z"/>
	</g>
	<g id="Path_82619_1_">
		<path fill="#BCBDBE" d="M233.818,296.769h-3.962c-0.276,0-0.5-0.224-0.5-0.5s0.224-0.5,0.5-0.5h3.962c0.276,0,0.5,0.224,0.5,0.5
			S234.095,296.769,233.818,296.769z"/>
	</g>
	<g id="Path_72648_111_">
		<path fill="#BCBDBE" d="M241.545,289.695h-3.306c-0.001,0-0.002,0-0.004,0c-0.658-0.005-1.19-0.544-1.187-1.202v-2.657
			c0.001-0.422,0.345-0.766,0.766-0.769c0.394,0,0.774,0.138,1.073,0.388l2.772,2.334c0.362,0.304,0.569,0.751,0.567,1.225
			C242.225,289.39,241.919,289.695,241.545,289.695z M238.242,288.695h2.896c-0.032-0.053-0.073-0.1-0.122-0.141l-2.772-2.333
			c-0.059-0.049-0.125-0.087-0.196-0.113v2.388C238.048,288.606,238.135,288.693,238.242,288.695L238.242,288.695z"/>
	</g>
	<g id="Path_72650_97_">
		<path fill="#BCBDBE" d="M228.957,305.011c-1.108-0.008-2.005-0.912-2.003-2.017v-15.913c-0.001-1.104,0.896-2.009,2-2.017h6.155
			c0.276,0,0.5,0.224,0.5,0.5v3.789c-0.002,0.896,0.723,1.627,1.618,1.631h4.503c0.276,0,0.5,0.224,0.5,0.5s-0.224,0.5-0.5,0.5
			h-4.505c-1.448-0.006-2.621-1.187-2.616-2.632v-3.288h-5.651c-0.552,0.004-1.003,0.46-1.003,1.016v15.915
			c-0.001,0.557,0.451,1.012,1.006,1.016h11.266c0.552-0.004,1.004-0.459,1.003-1.015v-7.923c0-0.276,0.224-0.5,0.5-0.5
			s0.5,0.224,0.5,0.5v7.922c0.002,1.104-0.895,2.008-2,2.016H228.957z"/>
	</g>
	<g id="Path_82601_1_">
		<path fill="#D4D5D6" d="M235.872,300.219c-0.125,0-0.249-0.047-0.343-0.136c-0.133-0.126-0.187-0.313-0.141-0.49l0.593-2.271
			c0.021-0.08,0.061-0.152,0.116-0.213l7.208-7.823c0.09-0.098,0.215-0.155,0.348-0.161c0.129-0.005,0.262,0.043,0.359,0.133
			l1.67,1.548c0.203,0.188,0.214,0.505,0.027,0.707l-7.249,7.821c-0.058,0.063-0.131,0.109-0.212,0.136l-2.223,0.725
			C235.976,300.211,235.923,300.219,235.872,300.219z M236.917,297.696l-0.33,1.265l1.229-0.401l6.82-7.359l-0.936-0.866
			L236.917,297.696z"/>
	</g>
	<g id="Path_82602_1_">
		<path fill="#19A3FF" d="M240.727,309.137c-0.138,0-0.276-0.058-0.375-0.17c-0.183-0.207-0.163-0.522,0.044-0.705
			c1.757-1.548,4.198-4.138,4.124-5.049c-0.04-0.496-0.243-0.688-0.393-0.789c-1.024-0.697-3.951,0.192-6.304,0.906
			c-1.233,0.375-2.398,0.729-3.399,0.92c-0.392,0.074-1.582,0.301-1.996-0.477c-0.585-1.101,1.334-3.215,2.188-4.072
			c0.195-0.195,0.511-0.195,0.707-0.002c0.196,0.194,0.197,0.511,0.002,0.707c-1.156,1.164-2.113,2.545-2.012,2.902
			c0.011-0.009,0.079,0.031,0.286,0.031c0.142,0,0.347-0.017,0.638-0.072c0.949-0.182,2.09-0.527,3.297-0.895
			c2.821-0.856,5.738-1.742,7.157-0.776c0.493,0.335,0.771,0.852,0.827,1.534c0.141,1.735-3.69,5.203-4.46,5.881
			C240.962,309.096,240.845,309.137,240.727,309.137z M233.314,303.311h0.01H233.314z"/>
	</g>
</g>
</svg>
