<?xml version="1.0" encoding="utf-8"?>
<!-- Generator: Adobe Illustrator 22.0.1, SVG Export Plug-In . SVG Version: 6.00 Build 0)  -->
<svg version="1.1" id="Layer_1" xmlns="http://www.w3.org/2000/svg" xmlns:xlink="http://www.w3.org/1999/xlink" x="0px" y="0px"
	 viewBox="0 0 26 26" enable-background="new 0 0 26 26" xml:space="preserve">
<g>
	<g id="Path_76902_1_">
		<path fill="#3FE7E7" d="M4.124,9.121c-0.276,0-0.5-0.224-0.5-0.5V4.984c0-0.359,0.139-0.697,0.394-0.951
			c0.254-0.255,0.592-0.395,0.951-0.395H8.61c0.276,0,0.5,0.224,0.5,0.5s-0.224,0.5-0.5,0.5H4.969c-0.092,0-0.179,0.036-0.244,0.102
			C4.659,4.805,4.624,4.892,4.624,4.983v3.638C4.624,8.897,4.4,9.121,4.124,9.121z"/>
	</g>
	<g id="Path_76903_1_">
		<path fill="#60E4FF" d="M8.61,22.361H4.991c-0.751,0-1.363-0.611-1.363-1.362v-3.62c0-0.276,0.224-0.5,0.5-0.5s0.5,0.224,0.5,0.5
			v3.62c0,0.2,0.163,0.362,0.363,0.362H8.61c0.276,0,0.5,0.224,0.5,0.5S8.886,22.361,8.61,22.361z"/>
	</g>
	<g id="Group_34408_1_" transform="translate(273.58 93.283)">
		<g id="Path_76904_1_">
			<path fill="#60E4FF" d="M-252.548-70.922h-3.639c-0.276,0-0.5-0.224-0.5-0.5s0.224-0.5,0.5-0.5h3.638
				c0.19,0,0.345-0.154,0.345-0.344v-3.639c0-0.276,0.224-0.5,0.5-0.5s0.5,0.224,0.5,0.5v3.639
				C-251.204-71.524-251.807-70.922-252.548-70.922z"/>
		</g>
		<g id="Path_76905_1_">
			<path fill="#60E4FF" d="M-251.704-84.162c-0.276,0-0.5-0.224-0.5-0.5v-3.688c0-0.079-0.031-0.153-0.087-0.209
				c-0.055-0.056-0.129-0.086-0.207-0.086c0,0,0,0-0.001,0h-3.688c-0.276,0-0.5-0.224-0.5-0.5s0.224-0.5,0.5-0.5h3.687
				c0.001,0,0.002,0,0.003,0c0.344,0,0.668,0.134,0.913,0.378c0.245,0.245,0.38,0.57,0.38,0.917v3.688
				C-251.204-84.386-251.427-84.162-251.704-84.162z"/>
		</g>
	</g>
	<g id="Line_202_1_">
		<path fill="#C0C4C8" d="M7.474,17.509c-0.276,0-0.5-0.224-0.5-0.5v-4.285c0-0.276,0.224-0.5,0.5-0.5s0.5,0.224,0.5,0.5v4.285
			C7.974,17.285,7.75,17.509,7.474,17.509z"/>
	</g>
	<g id="Line_203_1_">
		<path fill="#FEFEFF" d="M7.474,10.562c-0.276,0-0.5-0.224-0.5-0.5V8.251c0-0.276,0.224-0.5,0.5-0.5s0.5,0.224,0.5,0.5v1.811
			C7.974,10.338,7.75,10.562,7.474,10.562z"/>
	</g>
	<g id="Line_204_1_">
		<path fill="#C0C4C8" d="M11.853,15.011c-0.276,0-0.5-0.224-0.5-0.5V12.63c0-0.276,0.224-0.5,0.5-0.5s0.5,0.224,0.5,0.5v1.881
			C12.353,14.787,12.129,15.011,11.853,15.011z"/>
	</g>
	<g id="Line_205_1_">
		<path fill="#FEFEFF" d="M11.853,10.562c-0.276,0-0.5-0.224-0.5-0.5V8.251c0-0.276,0.224-0.5,0.5-0.5s0.5,0.224,0.5,0.5v1.811
			C12.353,10.338,12.129,10.562,11.853,10.562z"/>
	</g>
	<g id="Line_206_1_">
		<path fill="#C0C4C8" d="M14.124,17.695c-0.276,0-0.5-0.224-0.5-0.5V12.63c0-0.276,0.224-0.5,0.5-0.5s0.5,0.224,0.5,0.5v4.565
			C14.624,17.472,14.401,17.695,14.124,17.695z"/>
	</g>
	<g id="Line_207_1_">
		<path fill="#FEFEFF" d="M14.124,10.562c-0.276,0-0.5-0.224-0.5-0.5V8.251c0-0.276,0.224-0.5,0.5-0.5s0.5,0.224,0.5,0.5v1.811
			C14.624,10.338,14.401,10.562,14.124,10.562z"/>
	</g>
	<g id="Line_208_1_">
		<path fill="#FEFEFF" d="M9.705,10.474c-0.276,0-0.5-0.224-0.5-0.5V8.251c0-0.276,0.224-0.5,0.5-0.5s0.5,0.224,0.5,0.5v1.723
			C10.205,10.25,9.982,10.474,9.705,10.474z"/>
	</g>
	<g id="Line_209_1_">
		<path fill="#C0C4C8" d="M18.535,17.695c-0.276,0-0.5-0.224-0.5-0.5v-4.472c0-0.276,0.224-0.5,0.5-0.5s0.5,0.224,0.5,0.5v4.472
			C19.035,17.472,18.812,17.695,18.535,17.695z"/>
	</g>
	<g id="Line_210_1_">
		<path fill="#FEFEFF" d="M18.535,10.624c-0.276,0-0.5-0.224-0.5-0.5V8.251c0-0.276,0.224-0.5,0.5-0.5s0.5,0.224,0.5,0.5v1.873
			C19.035,10.4,18.812,10.624,18.535,10.624z"/>
	</g>
	<g id="Line_211_1_">
		<path fill="#C0C4C8" d="M16.387,15.011c-0.276,0-0.5-0.224-0.5-0.5V12.63c0-0.276,0.224-0.5,0.5-0.5s0.5,0.224,0.5,0.5v1.881
			C16.887,14.787,16.664,15.011,16.387,15.011z"/>
	</g>
	<g id="Line_212_1_">
		<path fill="#FEFEFF" d="M16.387,10.624c-0.276,0-0.5-0.224-0.5-0.5V8.251c0-0.276,0.224-0.5,0.5-0.5s0.5,0.224,0.5,0.5v1.873
			C16.887,10.4,16.664,10.624,16.387,10.624z"/>
	</g>
	<g id="Line_213_1_">
		<path fill="#C0C4C8" d="M9.705,17.441c-0.276,0-0.5-0.224-0.5-0.5V12.63c0-0.276,0.224-0.5,0.5-0.5s0.5,0.224,0.5,0.5v4.312
			C10.205,17.218,9.982,17.441,9.705,17.441z"/>
	</g>
	<g id="Line_214_1_">
		<path fill="#C0C4C8" d="M11.853,17.441c-0.276,0-0.5-0.224-0.5-0.5v-0.686c0-0.276,0.224-0.5,0.5-0.5s0.5,0.224,0.5,0.5v0.686
			C12.353,17.218,12.129,17.441,11.853,17.441z"/>
	</g>
	<g id="Line_215_1_">
		<path fill="#C0C4C8" d="M16.387,17.441c-0.276,0-0.5-0.224-0.5-0.5v-0.686c0-0.276,0.224-0.5,0.5-0.5s0.5,0.224,0.5,0.5v0.686
			C16.887,17.218,16.664,17.441,16.387,17.441z"/>
	</g>
	<g id="Line_216_1_">
		<path fill="#FF2D39" d="M20.413,11.881H5.222c-0.276,0-0.5-0.224-0.5-0.5s0.224-0.5,0.5-0.5h15.19c0.276,0,0.5,0.224,0.5,0.5
			S20.689,11.881,20.413,11.881z"/>
	</g>
	<g enable-background="new    ">
		<path fill="#DDE0E8" d="M7.341,18.61c0.085,0,0.153,0.025,0.204,0.077c0.051,0.051,0.077,0.125,0.077,0.222
			c0,0.02-0.002,0.04-0.005,0.06c-0.003,0.019-0.008,0.036-0.012,0.051c-0.005,0.015-0.012,0.03-0.022,0.048
			s-0.018,0.031-0.024,0.042c-0.007,0.011-0.017,0.023-0.031,0.04s-0.024,0.028-0.031,0.036c-0.007,0.007-0.018,0.02-0.034,0.036
			l-0.183,0.192h0.337v0.132H7.081v-0.115l0.266-0.296c0.021-0.024,0.037-0.041,0.044-0.05s0.019-0.022,0.032-0.04
			c0.014-0.018,0.022-0.031,0.027-0.042c0.005-0.011,0.009-0.023,0.013-0.038c0.004-0.016,0.006-0.031,0.006-0.048
			c0-0.012-0.001-0.029-0.004-0.051c-0.004-0.022-0.01-0.042-0.019-0.059s-0.019-0.028-0.032-0.037
			c-0.012-0.009-0.025-0.015-0.04-0.019s-0.03-0.006-0.048-0.006c-0.012,0-0.024,0.001-0.037,0.003s-0.025,0.004-0.037,0.008
			c-0.012,0.003-0.023,0.006-0.036,0.011c-0.012,0.004-0.022,0.008-0.033,0.012c-0.01,0.005-0.02,0.01-0.029,0.014
			c-0.009,0.005-0.018,0.009-0.025,0.013c-0.007,0.004-0.014,0.008-0.019,0.011s-0.01,0.006-0.013,0.008l-0.004,0.003l-0.054-0.126
			c0.003-0.003,0.008-0.006,0.014-0.01c0.006-0.004,0.02-0.012,0.04-0.021c0.021-0.011,0.042-0.021,0.063-0.028
			c0.022-0.008,0.049-0.016,0.083-0.021C7.275,18.613,7.308,18.61,7.341,18.61z"/>
	</g>
	<g enable-background="new    ">
		<path fill="#DDE0E8" d="M9.552,19.561c-0.074,0-0.136-0.02-0.188-0.058c-0.052-0.038-0.089-0.091-0.114-0.159
			c-0.024-0.067-0.037-0.147-0.037-0.239c0-0.068,0.008-0.133,0.024-0.192c0.016-0.06,0.04-0.111,0.07-0.157
			c0.031-0.045,0.07-0.081,0.117-0.106c0.048-0.026,0.101-0.04,0.16-0.04c0.097,0,0.175,0.027,0.233,0.083l-0.053,0.119
			c-0.055-0.043-0.115-0.064-0.18-0.064c-0.058,0-0.105,0.027-0.143,0.082s-0.058,0.123-0.062,0.206
			c0.045-0.064,0.106-0.096,0.184-0.096c0.091,0,0.164,0.027,0.218,0.083c0.054,0.055,0.081,0.13,0.081,0.224
			c0,0.092-0.029,0.167-0.086,0.227S9.646,19.561,9.552,19.561z M9.548,19.423c0.045,0,0.083-0.017,0.11-0.05
			C9.686,19.34,9.7,19.298,9.7,19.247c0-0.052-0.013-0.095-0.038-0.128s-0.06-0.05-0.106-0.05c-0.05,0-0.09,0.017-0.12,0.051
			c-0.03,0.033-0.044,0.076-0.044,0.13c0,0.025,0.004,0.05,0.014,0.072s0.021,0.041,0.037,0.056s0.032,0.025,0.05,0.033
			S9.529,19.423,9.548,19.423z"/>
	</g>
	<g enable-background="new    ">
		<path fill="#DDE0E8" d="M11.46,19.546v-0.128h0.163v-0.629c-0.061,0.028-0.122,0.052-0.184,0.072v-0.146
			c0.062-0.021,0.129-0.05,0.202-0.09h0.142v0.795h0.166v0.125H11.46z"/>
	</g>
	<g enable-background="new    ">
		<path fill="#DDE0E8" d="M14.321,19.546v-0.241h-0.39v-0.119l0.369-0.56h0.181v0.554h0.145v0.125h-0.142v0.241H14.321z
			 M14.109,19.18h0.214v-0.351C14.314,18.844,14.242,18.961,14.109,19.18z"/>
	</g>
	<g enable-background="new    ">
		<path fill="#DDE0E8" d="M16.424,19.561c-0.06,0-0.114-0.01-0.161-0.03s-0.085-0.051-0.113-0.091
			c-0.028-0.041-0.042-0.089-0.042-0.144c0-0.051,0.014-0.096,0.042-0.137c0.027-0.04,0.065-0.072,0.115-0.096
			c-0.092-0.053-0.138-0.123-0.138-0.212c0-0.075,0.027-0.135,0.082-0.178s0.125-0.065,0.211-0.065c0.092,0,0.164,0.022,0.217,0.067
			c0.053,0.044,0.08,0.105,0.08,0.183c0,0.094-0.045,0.162-0.136,0.207c0.044,0.021,0.082,0.055,0.111,0.098s0.044,0.09,0.044,0.139
			c0,0.054-0.015,0.101-0.044,0.141s-0.067,0.069-0.114,0.089C16.53,19.551,16.479,19.561,16.424,19.561z M16.422,19.42
			c0.047,0,0.084-0.011,0.111-0.033s0.04-0.057,0.04-0.102c0-0.036-0.014-0.069-0.042-0.102c-0.029-0.031-0.063-0.053-0.104-0.063
			c-0.045,0.01-0.082,0.03-0.111,0.061s-0.043,0.066-0.043,0.106c0,0.043,0.013,0.075,0.04,0.099
			C16.339,19.408,16.375,19.42,16.422,19.42z M16.421,19.004c0.042-0.013,0.074-0.031,0.098-0.057
			c0.023-0.025,0.035-0.057,0.035-0.094c0-0.031-0.013-0.057-0.038-0.075c-0.025-0.02-0.057-0.028-0.095-0.028
			c-0.041,0-0.073,0.009-0.097,0.028c-0.023,0.019-0.035,0.046-0.035,0.083c0,0.034,0.012,0.063,0.035,0.089
			C16.346,18.975,16.379,18.993,16.421,19.004z"/>
	</g>
	<g enable-background="new    ">
		<path fill="#DDE0E8" d="M18.57,19.561c-0.035,0-0.069-0.003-0.102-0.008c-0.033-0.006-0.06-0.012-0.081-0.02
			s-0.041-0.016-0.057-0.023s-0.029-0.014-0.037-0.02l-0.011-0.008l0.049-0.12c0.006,0.004,0.017,0.01,0.033,0.018
			c0.016,0.008,0.042,0.018,0.077,0.027c0.035,0.011,0.069,0.016,0.101,0.016c0.057,0,0.101-0.013,0.131-0.038
			c0.03-0.026,0.045-0.062,0.045-0.106c0-0.049-0.021-0.084-0.062-0.108c-0.041-0.023-0.098-0.035-0.171-0.035h-0.02l-0.041,0.001
			L18.425,19h0.045c0.082,0,0.14-0.011,0.173-0.032c0.034-0.021,0.05-0.06,0.05-0.115c0-0.033-0.016-0.06-0.047-0.078
			c-0.031-0.02-0.068-0.028-0.109-0.028c-0.02,0-0.039,0.002-0.057,0.005s-0.035,0.008-0.049,0.015
			c-0.015,0.006-0.027,0.011-0.036,0.016s-0.02,0.011-0.031,0.019c-0.012,0.007-0.019,0.012-0.021,0.013l-0.071-0.115
			c0.049-0.033,0.093-0.056,0.131-0.069c0.038-0.013,0.09-0.02,0.156-0.02c0.039,0,0.076,0.006,0.11,0.016s0.066,0.024,0.094,0.044
			s0.05,0.044,0.067,0.075s0.025,0.066,0.025,0.105c0,0.033-0.005,0.063-0.017,0.093s-0.03,0.055-0.057,0.078
			c-0.027,0.022-0.06,0.037-0.099,0.043c0.061,0.011,0.107,0.037,0.142,0.078c0.034,0.041,0.051,0.089,0.051,0.145
			c0,0.042-0.008,0.08-0.025,0.116c-0.017,0.035-0.039,0.063-0.067,0.087c-0.028,0.022-0.061,0.041-0.097,0.053
			C18.65,19.554,18.611,19.561,18.57,19.561z"/>
	</g>
</g>
</svg>
