<?xml version="1.0" encoding="utf-8"?>
<!-- Generator: Adobe Illustrator 27.1.0, SVG Export Plug-In . SVG Version: 6.00 Build 0)  -->
<svg version="1.1" id="Guides" xmlns="http://www.w3.org/2000/svg" xmlns:xlink="http://www.w3.org/1999/xlink" x="0px" y="0px"
	 viewBox="0 0 24 24" enable-background="new 0 0 24 24" xml:space="preserve">
<g id="Group_36314_00000137849659157231861190000000400969479213899434_" transform="translate(16 -356.717)">
	
		<path id="Path_83032_00000061447657532884015950000014795888780766827198_" fill="none" stroke="#00A5E6" stroke-width="0.8479" stroke-linecap="round" stroke-linejoin="round" d="
		M-12.7,364.4v-3.6c0-0.5,0.4-0.8,0.8-0.8c0,0,0,0,0,0h3.6"/>
	
		<path id="Path_83033_00000075131431834964446240000001657148332456489918_" fill="none" stroke="#00A5E6" stroke-width="0.8479" stroke-linecap="round" stroke-linejoin="round" d="
		M-8.3,377.4h-3.6c-0.5,0-0.8-0.4-0.8-0.8V373"/>
	<g id="Group_36283_00000066491947947068649930000005965597136502138010_" transform="translate(257.58 494)">
		
			<path id="Path_76904_00000083058691453890769470000007796446879755067070_" fill="none" stroke="#00A5E6" stroke-width="0.8479" stroke-linecap="round" stroke-linejoin="round" d="
			M-252.9-121v3.6c0,0.5-0.4,0.8-0.8,0.8c0,0,0,0,0,0h-3.6"/>
		
			<path id="Path_76905_00000087402137811209487580000017134122247254814092_" fill="none" stroke="#00A5E6" stroke-width="0.8479" stroke-linecap="round" stroke-linejoin="round" d="
			M-257.3-134h3.6c0.4,0,0.8,0.3,0.8,0.8l0,0v3.6"/>
	</g>
	
		<line id="Line_1381_00000036956774697292878910000007311962419209605802_" fill="none" stroke="#9FA9B3" stroke-width="0.8479" stroke-linecap="round" stroke-linejoin="round" x1="-9.4" y1="368.4" x2="-9.4" y2="372.7"/>
	
		<line id="Line_1382_00000143593438297211652630000001709505692753356723_" fill="none" stroke="#C0C4C8" stroke-width="0.8479" stroke-linecap="round" stroke-linejoin="round" x1="-9.4" y1="364" x2="-9.4" y2="365.8"/>
	
		<line id="Line_1376_00000054238363708603026630000018404023797882881180_" fill="none" stroke="#9FA9B3" stroke-width="0.8479" stroke-linecap="round" stroke-linejoin="round" x1="-5.1" y1="368.4" x2="-5.1" y2="370.2"/>
	
		<line id="Line_1377_00000051355140565983348280000007201650247383675317_" fill="none" stroke="#C0C4C8" stroke-width="0.8479" stroke-linecap="round" stroke-linejoin="round" x1="-5.1" y1="364" x2="-5.1" y2="365.8"/>
	
		<line id="Line_1374_00000075146376285370321740000010435021926569514424_" fill="none" stroke="#9FA9B3" stroke-width="0.8479" stroke-linecap="round" stroke-linejoin="round" x1="-2.9" y1="368.4" x2="-2.9" y2="372.8"/>
	
		<line id="Line_1375_00000137104544321268638930000001010845046117033350_" fill="none" stroke="#C0C4C8" stroke-width="0.8479" stroke-linecap="round" stroke-linejoin="round" x1="-2.9" y1="364" x2="-2.9" y2="365.8"/>
	
		<line id="Line_1379_00000113318836323985955020000009733032448874483862_" fill="none" stroke="#C0C4C8" stroke-width="0.8479" stroke-linecap="round" stroke-linejoin="round" x1="-7.2" y1="364" x2="-7.2" y2="365.7"/>
	
		<line id="Line_1369_00000083050993992898431840000006486742172777134499_" fill="none" stroke="#9FA9B3" stroke-width="0.8479" stroke-linecap="round" stroke-linejoin="round" x1="1.4" y1="368.4" x2="1.4" y2="372.8"/>
	
		<line id="Line_1370_00000137118233507110931630000009801331054877805219_" fill="none" stroke="#C0C4C8" stroke-width="0.8479" stroke-linecap="round" stroke-linejoin="round" x1="1.4" y1="364" x2="1.4" y2="365.9"/>
	
		<line id="Line_1371_00000095322633155759707660000010632738707641568957_" fill="none" stroke="#9FA9B3" stroke-width="0.8479" stroke-linecap="round" stroke-linejoin="round" x1="-0.7" y1="368.4" x2="-0.7" y2="370.2"/>
	
		<line id="Line_1372_00000046334424107152262310000000087591473906793906_" fill="none" stroke="#C0C4C8" stroke-width="0.8479" stroke-linecap="round" stroke-linejoin="round" x1="-0.7" y1="364" x2="-0.7" y2="365.9"/>
	
		<line id="Line_1380_00000150801455449065579480000006226299788228499626_" fill="none" stroke="#9FA9B3" stroke-width="0.8479" stroke-linecap="round" stroke-linejoin="round" x1="-7.2" y1="368.4" x2="-7.2" y2="372.6"/>
	
		<line id="Line_1378_00000181793549369343257130000015202117010185755294_" fill="none" stroke="#9FA9B3" stroke-width="0.8479" stroke-linecap="round" stroke-linejoin="round" x1="-5.1" y1="371.9" x2="-5.1" y2="372.6"/>
	
		<line id="Line_1373_00000037682278142618673040000003423585604151628695_" fill="none" stroke="#9FA9B3" stroke-width="0.8479" stroke-linecap="round" stroke-linejoin="round" x1="-0.7" y1="371.9" x2="-0.7" y2="372.6"/>
	
		<line id="Line_1368_00000177475666893231259780000004031427080905523335_" fill="none" stroke="#FF2D39" stroke-width="0.8479" stroke-linecap="round" stroke-linejoin="round" x1="-11.6" y1="367.1" x2="3.3" y2="367.1"/>
	<text transform="matrix(1 0 0 1 -9.9329 375.1511)" fill="#9FA9B3" font-family="'Muli-Bold'" font-size="1.2718px">2</text>
	<text transform="matrix(1 0 0 1 -7.8128 375.1511)" fill="#9FA9B3" font-family="'Muli-Bold'" font-size="1.2718px">6</text>
	<text transform="matrix(1 0 0 1 -5.6936 375.1511)" fill="#9FA9B3" font-family="'Muli-Bold'" font-size="1.2718px">1</text>
	<text transform="matrix(1 0 0 1 -3.1497 375.1511)" fill="#9FA9B3" font-family="'Muli-Bold'" font-size="1.2718px">4</text>
	<text transform="matrix(1 0 0 1 -1.0296 375.1511)" fill="#9FA9B3" font-family="'Muli-Bold'" font-size="1.2718px">8</text>
	<text transform="matrix(1 0 0 1 1.0896 375.1511)" fill="#9FA9B3" font-family="'Muli-Bold'" font-size="1.2718px">3</text>
</g>
</svg>
