<?xml version="1.0" encoding="utf-8"?>
<!-- Generator: Adobe Illustrator 22.0.1, SVG Export Plug-In . SVG Version: 6.00 Build 0)  -->
<svg version="1.1" id="Layer_1" xmlns="http://www.w3.org/2000/svg" xmlns:xlink="http://www.w3.org/1999/xlink" x="0px" y="0px"
	 viewBox="0 0 26 26" enable-background="new 0 0 26 26" xml:space="preserve">
<g id="Group_34873_1_" transform="translate(21.455 319.579)">
	<g id="Line_217_1_">
		<path fill="#D4D5D6" d="M-16.568-297.446c-0.276,0-0.5-0.224-0.5-0.5v-11.989c0-0.276,0.224-0.5,0.5-0.5s0.5,0.224,0.5,0.5v11.989
			C-16.068-297.67-16.292-297.446-16.568-297.446z"/>
	</g>
	<g id="Line_218_1_">
		<path fill="#D4D5D6" d="M-14.519-297.446c-0.276,0-0.5-0.224-0.5-0.5v-13.484c0-0.276,0.224-0.5,0.5-0.5s0.5,0.224,0.5,0.5v13.484
			C-14.019-297.67-14.242-297.446-14.519-297.446z"/>
	</g>
	<g id="Line_219_1_">
		<path fill="#D4D5D6" d="M-12.505-304.89c-0.276,0-0.5-0.224-0.5-0.5v-7.185c0-0.276,0.224-0.5,0.5-0.5s0.5,0.224,0.5,0.5v7.185
			C-12.005-305.113-12.229-304.89-12.505-304.89z"/>
	</g>
	<g id="Line_220_1_">
		<path fill="#D4D5D6" d="M-10.456-304.889c-0.276,0-0.5-0.224-0.5-0.5v-8.504c0-0.276,0.224-0.5,0.5-0.5s0.5,0.224,0.5,0.5v8.504
			C-9.956-305.112-10.179-304.889-10.456-304.889z"/>
	</g>
	<g id="Line_221_1_">
		<path fill="#D4D5D6" d="M-8.371-304.889c-0.276,0-0.5-0.224-0.5-0.5v-9.823c0-0.276,0.224-0.5,0.5-0.5s0.5,0.224,0.5,0.5v9.823
			C-7.871-305.112-8.094-304.889-8.371-304.889z"/>
	</g>
	<g id="Line_222_1_">
		<path fill="#D4D5D6" d="M-0.342-297.446c-0.276,0-0.5-0.224-0.5-0.5v-12.441c0-0.276,0.224-0.5,0.5-0.5s0.5,0.224,0.5,0.5v12.441
			C0.158-297.67-0.066-297.446-0.342-297.446z"/>
	</g>
	<g id="Line_223_1_">
		<path fill="#D4D5D6" d="M-2.356-297.446c-0.276,0-0.5-0.224-0.5-0.5v-13.723c0-0.276,0.224-0.5,0.5-0.5s0.5,0.224,0.5,0.5v13.723
			C-1.856-297.67-2.079-297.446-2.356-297.446z"/>
	</g>
	<g id="Line_224_1_">
		<path fill="#D4D5D6" d="M-4.405-304.889c-0.276,0-0.5-0.224-0.5-0.5v-7.456c0-0.276,0.224-0.5,0.5-0.5s0.5,0.224,0.5,0.5v7.456
			C-3.905-305.112-4.129-304.889-4.405-304.889z"/>
	</g>
	<g id="Line_225_1_">
		<path fill="#D4D5D6" d="M-6.322-304.89c-0.276,0-0.5-0.224-0.5-0.5v-8.588c0-0.276,0.224-0.5,0.5-0.5s0.5,0.224,0.5,0.5v8.588
			C-5.822-305.113-6.046-304.89-6.322-304.89z"/>
	</g>
	<g id="checkmark-outline_58_">
		<path fill="#10F18F" d="M-9.506-298.425c-0.132,0-0.26-0.053-0.354-0.146l-1.704-1.704c-0.195-0.195-0.195-0.512,0-0.707
			s0.512-0.195,0.707,0l1.326,1.326l3.62-4.137c0.182-0.209,0.498-0.229,0.706-0.047c0.208,0.182,0.229,0.497,0.047,0.705
			l-3.972,4.539c-0.091,0.104-0.222,0.166-0.36,0.171C-9.495-298.425-9.501-298.425-9.506-298.425z"/>
	</g>
</g>
</svg>
